<svg id="visual" viewBox="0 0 960 540" width="960" height="540" xmlns="http://www.w3.org/2000/svg" xmlns:xlink="http://www.w3.org/1999/xlink" version="1.1"><path d="M0 98L14.5 99.8C29 101.7 58 105.3 87.2 108C116.3 110.7 145.7 112.3 174.8 116C204 119.7 233 125.3 262 119.2C291 113 320 95 349 86.8C378 78.7 407 80.3 436.2 77.5C465.3 74.7 494.7 67.3 523.8 66.5C553 65.7 582 71.3 611 75.8C640 80.3 669 83.7 698 80C727 76.3 756 65.7 785.2 70.2C814.3 74.7 843.7 94.3 872.8 94.3C902 94.3 931 74.7 945.5 64.8L960 55L960 0L945.5 0C931 0 902 0 872.8 0C843.7 0 814.3 0 785.2 0C756 0 727 0 698 0C669 0 640 0 611 0C582 0 553 0 523.8 0C494.7 0 465.3 0 436.2 0C407 0 378 0 349 0C320 0 291 0 262 0C233 0 204 0 174.8 0C145.7 0 116.3 0 87.2 0C58 0 29 0 14.5 0L0 0Z" fill="#1c1c1c"></path><path d="M0 271L14.5 270.2C29 269.3 58 267.7 87.2 259.5C116.3 251.3 145.7 236.7 174.8 244.7C204 252.7 233 283.3 262 275.3C291 267.3 320 220.7 349 204.5C378 188.3 407 202.7 436.2 213.5C465.3 224.3 494.7 231.7 523.8 224.5C553 217.3 582 195.7 611 186.7C640 177.7 669 181.3 698 195.7C727 210 756 235 785.2 253C814.3 271 843.7 282 872.8 281.2C902 280.3 931 267.7 945.5 261.3L960 255L960 53L945.5 62.8C931 72.7 902 92.3 872.8 92.3C843.7 92.3 814.3 72.7 785.2 68.2C756 63.7 727 74.3 698 78C669 81.7 640 78.3 611 73.8C582 69.3 553 63.7 523.8 64.5C494.7 65.3 465.3 72.7 436.2 75.5C407 78.3 378 76.7 349 84.8C320 93 291 111 262 117.2C233 123.3 204 117.7 174.8 114C145.7 110.3 116.3 108.7 87.2 106C58 103.3 29 99.7 14.5 97.8L0 96Z" fill="#242424"></path><path d="M0 314L14.5 314C29 314 58 314 87.2 309.5C116.3 305 145.7 296 174.8 302.3C204 308.7 233 330.3 262 319.5C291 308.7 320 265.3 349 249.2C378 233 407 244 436.2 255.8C465.3 267.7 494.7 280.3 523.8 278.5C553 276.7 582 260.3 611 253C640 245.7 669 247.3 698 256.3C727 265.3 756 281.7 785.2 298.8C814.3 316 843.7 334 872.8 334C902 334 931 316 945.5 307L960 298L960 253L945.5 259.3C931 265.7 902 278.3 872.8 279.2C843.7 280 814.3 269 785.2 251C756 233 727 208 698 193.7C669 179.3 640 175.7 611 184.7C582 193.7 553 215.3 523.8 222.5C494.7 229.7 465.3 222.3 436.2 211.5C407 200.7 378 186.3 349 202.5C320 218.7 291 265.3 262 273.3C233 281.3 204 250.7 174.8 242.7C145.7 234.7 116.3 249.3 87.2 257.5C58 265.7 29 267.3 14.5 268.2L0 269Z" fill="#474747"></path><path d="M0 406L14.5 404.2C29 402.3 58 398.7 87.2 391.5C116.3 384.3 145.7 373.7 174.8 378.2C204 382.7 233 402.3 262 392.3C291 382.3 320 342.7 349 327.3C378 312 407 321 436.2 326.5C465.3 332 494.7 334 523.8 332.3C553 330.7 582 325.3 611 319C640 312.7 669 305.3 698 309.8C727 314.3 756 330.7 785.2 348.7C814.3 366.7 843.7 386.3 872.8 385.3C902 384.3 931 362.7 945.5 351.8L960 341L960 296L945.5 305C931 314 902 332 872.8 332C843.7 332 814.3 314 785.2 296.8C756 279.7 727 263.3 698 254.3C669 245.3 640 243.7 611 251C582 258.3 553 274.7 523.8 276.5C494.7 278.3 465.3 265.7 436.2 253.8C407 242 378 231 349 247.2C320 263.3 291 306.7 262 317.5C233 328.3 204 306.7 174.8 300.3C145.7 294 116.3 303 87.2 307.5C58 312 29 312 14.5 312L0 312Z" fill="#474747"></path><path d="M0 492L14.5 488.5C29 485 58 478 87.2 479.8C116.3 481.7 145.7 492.3 174.8 496.8C204 501.3 233 499.7 262 497C291 494.3 320 490.7 349 487C378 483.3 407 479.7 436.2 476C465.3 472.3 494.7 468.7 523.8 471.3C553 474 582 483 611 487.5C640 492 669 492 698 488.5C727 485 756 478 785.2 477.2C814.3 476.3 843.7 481.7 872.8 482.5C902 483.3 931 479.7 945.5 477.8L960 476L960 339L945.5 349.8C931 360.7 902 382.3 872.8 383.3C843.7 384.3 814.3 364.7 785.2 346.7C756 328.7 727 312.3 698 307.8C669 303.3 640 310.7 611 317C582 323.3 553 328.7 523.8 330.3C494.7 332 465.3 330 436.2 324.5C407 319 378 310 349 325.3C320 340.7 291 380.3 262 390.3C233 400.3 204 380.7 174.8 376.2C145.7 371.7 116.3 382.3 87.2 389.5C58 396.7 29 400.3 14.5 402.2L0 404Z" fill="#242424"></path><path d="M0 541L14.5 541C29 541 58 541 87.2 541C116.3 541 145.7 541 174.8 541C204 541 233 541 262 541C291 541 320 541 349 541C378 541 407 541 436.2 541C465.3 541 494.7 541 523.8 541C553 541 582 541 611 541C640 541 669 541 698 541C727 541 756 541 785.2 541C814.3 541 843.7 541 872.8 541C902 541 931 541 945.5 541L960 541L960 474L945.5 475.8C931 477.7 902 481.3 872.8 480.5C843.7 479.7 814.3 474.3 785.2 475.2C756 476 727 483 698 486.5C669 490 640 490 611 485.5C582 481 553 472 523.8 469.3C494.7 466.7 465.3 470.3 436.2 474C407 477.7 378 481.3 349 485C320 488.7 291 492.3 262 495C233 497.7 204 499.3 174.8 494.8C145.7 490.3 116.3 479.7 87.2 477.8C58 476 29 483 14.5 486.5L0 490Z" fill="#1c1c1c"></path></svg>