<svg id="visual" viewBox="0 0 960 540" width="960" height="540" xmlns="http://www.w3.org/2000/svg" xmlns:xlink="http://www.w3.org/1999/xlink" version="1.1"><rect x="0" y="0" width="960" height="540" fill="#4D2A88"></rect><path d="M0 386L137 343L274 372L411 334L549 349L686 401L823 401L960 341L960 541L823 541L686 541L549 541L411 541L274 541L137 541L0 541Z" fill="#6f3f99"></path><path d="M0 364L137 409L274 401L411 376L549 402L686 395L823 399L960 412L960 541L823 541L686 541L549 541L411 541L274 541L137 541L0 541Z" fill="#973a8b"></path><path d="M0 444L137 427L274 399L411 412L549 400L686 414L823 424L960 418L960 541L823 541L686 541L549 541L411 541L274 541L137 541L0 541Z" fill="#b23a79"></path><path d="M0 456L137 487L274 435L411 460L549 467L686 487L823 464L960 464L960 541L823 541L686 541L549 541L411 541L274 541L137 541L0 541Z" fill="#c34366"></path><path d="M0 494L137 502L274 506L411 485L549 486L686 500L823 496L960 481L960 541L823 541L686 541L549 541L411 541L274 541L137 541L0 541Z" fill="#cc5454"></path></svg>