<svg id="visual" viewBox="0 0 540 960" width="540" height="960" xmlns="http://www.w3.org/2000/svg" xmlns:xlink="http://www.w3.org/1999/xlink" version="1.1"><rect x="0" y="0" width="540" height="960" fill="#4D2A88"></rect><path d="M0 571L90 579L180 604L270 634L360 540L450 615L540 476L540 961L450 961L360 961L270 961L180 961L90 961L0 961Z" fill="#6f3f99"></path><path d="M0 608L90 651L180 545L270 675L360 598L450 687L540 634L540 961L450 961L360 961L270 961L180 961L90 961L0 961Z" fill="#8b3b90"></path><path d="M0 723L90 658L180 605L270 693L360 611L450 672L540 686L540 961L450 961L360 961L270 961L180 961L90 961L0 961Z" fill="#a13985"></path><path d="M0 669L90 670L180 675L270 758L360 738L450 788L540 690L540 961L450 961L360 961L270 961L180 961L90 961L0 961Z" fill="#b23a79"></path><path d="M0 796L90 832L180 785L270 756L360 737L450 763L540 773L540 961L450 961L360 961L270 961L180 961L90 961L0 961Z" fill="#bf3f6c"></path><path d="M0 831L90 845L180 877L270 793L360 807L450 843L540 819L540 961L450 961L360 961L270 961L180 961L90 961L0 961Z" fill="#c74860"></path><path d="M0 884L90 873L180 894L270 882L360 866L450 886L540 897L540 961L450 961L360 961L270 961L180 961L90 961L0 961Z" fill="#cc5454"></path></svg>