<svg id="visual" viewBox="0 0 900 600" width="900" height="600" xmlns="http://www.w3.org/2000/svg" xmlns:xlink="http://www.w3.org/1999/xlink" version="1.1"><rect x="0" y="0" width="900" height="600" fill="#A17AB6"></rect><path d="M0 170L21.5 179.7C43 189.3 86 208.7 128.8 222C171.7 235.3 214.3 242.7 257.2 233C300 223.3 343 196.7 385.8 185.8C428.7 175 471.3 180 514.2 190.3C557 200.7 600 216.3 642.8 221.7C685.7 227 728.3 222 771.2 219.3C814 216.7 857 216.3 878.5 216.2L900 216L900 0L878.5 0C857 0 814 0 771.2 0C728.3 0 685.7 0 642.8 0C600 0 557 0 514.2 0C471.3 0 428.7 0 385.8 0C343 0 300 0 257.2 0C214.3 0 171.7 0 128.8 0C86 0 43 0 21.5 0L0 0Z" fill="#6f3f99"></path><path d="M0 203L21.5 199.8C43 196.7 86 190.3 128.8 179.8C171.7 169.3 214.3 154.7 257.2 153.5C300 152.3 343 164.7 385.8 165.5C428.7 166.3 471.3 155.7 514.2 153.3C557 151 600 157 642.8 154.5C685.7 152 728.3 141 771.2 144C814 147 857 164 878.5 172.5L900 181L900 0L878.5 0C857 0 814 0 771.2 0C728.3 0 685.7 0 642.8 0C600 0 557 0 514.2 0C471.3 0 428.7 0 385.8 0C343 0 300 0 257.2 0C214.3 0 171.7 0 128.8 0C86 0 43 0 21.5 0L0 0Z" fill="#673994"></path><path d="M0 155L21.5 151.5C43 148 86 141 128.8 142.2C171.7 143.3 214.3 152.7 257.2 148.8C300 145 343 128 385.8 119.8C428.7 111.7 471.3 112.3 514.2 118C557 123.7 600 134.3 642.8 137.5C685.7 140.7 728.3 136.3 771.2 135C814 133.7 857 135.3 878.5 136.2L900 137L900 0L878.5 0C857 0 814 0 771.2 0C728.3 0 685.7 0 642.8 0C600 0 557 0 514.2 0C471.3 0 428.7 0 385.8 0C343 0 300 0 257.2 0C214.3 0 171.7 0 128.8 0C86 0 43 0 21.5 0L0 0Z" fill="#5e3490"></path><path d="M0 70L21.5 77.8C43 85.7 86 101.3 128.8 104.5C171.7 107.7 214.3 98.3 257.2 94.2C300 90 343 91 385.8 89.7C428.7 88.3 471.3 84.7 514.2 88.5C557 92.3 600 103.7 642.8 108.7C685.7 113.7 728.3 112.3 771.2 103C814 93.7 857 76.3 878.5 67.7L900 59L900 0L878.5 0C857 0 814 0 771.2 0C728.3 0 685.7 0 642.8 0C600 0 557 0 514.2 0C471.3 0 428.7 0 385.8 0C343 0 300 0 257.2 0C214.3 0 171.7 0 128.8 0C86 0 43 0 21.5 0L0 0Z" fill="#562f8c"></path><path d="M0 51L21.5 52.7C43 54.3 86 57.7 128.8 57.3C171.7 57 214.3 53 257.2 49C300 45 343 41 385.8 38.7C428.7 36.3 471.3 35.7 514.2 40.2C557 44.7 600 54.3 642.8 55.3C685.7 56.3 728.3 48.7 771.2 44.7C814 40.7 857 40.3 878.5 40.2L900 40L900 0L878.5 0C857 0 814 0 771.2 0C728.3 0 685.7 0 642.8 0C600 0 557 0 514.2 0C471.3 0 428.7 0 385.8 0C343 0 300 0 257.2 0C214.3 0 171.7 0 128.8 0C86 0 43 0 21.5 0L0 0Z" fill="#4d2a88"></path></svg>