<svg id="visual" viewBox="0 0 450 900" width="450" height="900" xmlns="http://www.w3.org/2000/svg" xmlns:xlink="http://www.w3.org/1999/xlink" version="1.1"><path d="M0 64L3.3 61C6.7 58 13.3 52 19.8 50.5C26.3 49 32.7 52 39.2 55C45.7 58 52.3 61 58.8 61C65.3 61 71.7 58 78.2 56.5C84.7 55 91.3 55 97.8 56.5C104.3 58 110.7 61 117.2 62.5C123.7 64 130.3 64 137 64C143.7 64 150.3 64 156.8 64C163.3 64 169.7 64 176.2 59.5C182.7 55 189.3 46 195.8 43C202.3 40 208.7 43 215.2 44.5C221.7 46 228.3 46 234.8 49C241.3 52 247.7 58 254.2 59.5C260.7 61 267.3 58 273.8 53.5C280.3 49 286.7 43 293.2 44.5C299.7 46 306.3 55 313 58C319.7 61 326.3 58 332.8 56.5C339.3 55 345.7 55 352.2 56.5C358.7 58 365.3 61 371.8 58C378.3 55 384.7 46 391.2 44.5C397.7 43 404.3 49 410.8 53.5C417.3 58 423.7 61 430.2 58C436.7 55 443.3 46 446.7 41.5L450 37L450 0L446.7 0C443.3 0 436.7 0 430.2 0C423.7 0 417.3 0 410.8 0C404.3 0 397.7 0 391.2 0C384.7 0 378.3 0 371.8 0C365.3 0 358.7 0 352.2 0C345.7 0 339.3 0 332.8 0C326.3 0 319.7 0 313 0C306.3 0 299.7 0 293.2 0C286.7 0 280.3 0 273.8 0C267.3 0 260.7 0 254.2 0C247.7 0 241.3 0 234.8 0C228.3 0 221.7 0 215.2 0C208.7 0 202.3 0 195.8 0C189.3 0 182.7 0 176.2 0C169.7 0 163.3 0 156.8 0C150.3 0 143.7 0 137 0C130.3 0 123.7 0 117.2 0C110.7 0 104.3 0 97.8 0C91.3 0 84.7 0 78.2 0C71.7 0 65.3 0 58.8 0C52.3 0 45.7 0 39.2 0C32.7 0 26.3 0 19.8 0C13.3 0 6.7 0 3.3 0L0 0Z" fill="#6f3f99"></path><path d="M0 109L3.3 106C6.7 103 13.3 97 19.8 94C26.3 91 32.7 91 39.2 94C45.7 97 52.3 103 58.8 103C65.3 103 71.7 97 78.2 94C84.7 91 91.3 91 97.8 91C104.3 91 110.7 91 117.2 92.5C123.7 94 130.3 97 137 98.5C143.7 100 150.3 100 156.8 101.5C163.3 103 169.7 106 176.2 101.5C182.7 97 189.3 85 195.8 79C202.3 73 208.7 73 215.2 73C221.7 73 228.3 73 234.8 77.5C241.3 82 247.7 91 254.2 92.5C260.7 94 267.3 88 273.8 83.5C280.3 79 286.7 76 293.2 77.5C299.7 79 306.3 85 313 88C319.7 91 326.3 91 332.8 92.5C339.3 94 345.7 97 352.2 98.5C358.7 100 365.3 100 371.8 95.5C378.3 91 384.7 82 391.2 82C397.7 82 404.3 91 410.8 97C417.3 103 423.7 106 430.2 101.5C436.7 97 443.3 85 446.7 79L450 73L450 35L446.7 39.5C443.3 44 436.7 53 430.2 56C423.7 59 417.3 56 410.8 51.5C404.3 47 397.7 41 391.2 42.5C384.7 44 378.3 53 371.8 56C365.3 59 358.7 56 352.2 54.5C345.7 53 339.3 53 332.8 54.5C326.3 56 319.7 59 313 56C306.3 53 299.7 44 293.2 42.5C286.7 41 280.3 47 273.8 51.5C267.3 56 260.7 59 254.2 57.5C247.7 56 241.3 50 234.8 47C228.3 44 221.7 44 215.2 42.5C208.7 41 202.3 38 195.8 41C189.3 44 182.7 53 176.2 57.5C169.7 62 163.3 62 156.8 62C150.3 62 143.7 62 137 62C130.3 62 123.7 62 117.2 60.5C110.7 59 104.3 56 97.8 54.5C91.3 53 84.7 53 78.2 54.5C71.7 56 65.3 59 58.8 59C52.3 59 45.7 56 39.2 53C32.7 50 26.3 47 19.8 48.5C13.3 50 6.7 56 3.3 59L0 62Z" fill="#74459c"></path><path d="M0 181L3.3 173.5C6.7 166 13.3 151 19.8 146.5C26.3 142 32.7 148 39.2 152.5C45.7 157 52.3 160 58.8 161.5C65.3 163 71.7 163 78.2 161.5C84.7 160 91.3 157 97.8 157C104.3 157 110.7 160 117.2 160C123.7 160 130.3 157 137 155.5C143.7 154 150.3 154 156.8 154C163.3 154 169.7 154 176.2 149.5C182.7 145 189.3 136 195.8 134.5C202.3 133 208.7 139 215.2 140.5C221.7 142 228.3 139 234.8 143.5C241.3 148 247.7 160 254.2 163C260.7 166 267.3 160 273.8 154C280.3 148 286.7 142 293.2 143.5C299.7 145 306.3 154 313 158.5C319.7 163 326.3 163 332.8 160C339.3 157 345.7 151 352.2 151C358.7 151 365.3 157 371.8 155.5C378.3 154 384.7 145 391.2 145C397.7 145 404.3 154 410.8 158.5C417.3 163 423.7 163 430.2 157C436.7 151 443.3 139 446.7 133L450 127L450 71L446.7 77C443.3 83 436.7 95 430.2 99.5C423.7 104 417.3 101 410.8 95C404.3 89 397.7 80 391.2 80C384.7 80 378.3 89 371.8 93.5C365.3 98 358.7 98 352.2 96.5C345.7 95 339.3 92 332.8 90.5C326.3 89 319.7 89 313 86C306.3 83 299.7 77 293.2 75.5C286.7 74 280.3 77 273.8 81.5C267.3 86 260.7 92 254.2 90.5C247.7 89 241.3 80 234.8 75.5C228.3 71 221.7 71 215.2 71C208.7 71 202.3 71 195.8 77C189.3 83 182.7 95 176.2 99.5C169.7 104 163.3 101 156.8 99.5C150.3 98 143.7 98 137 96.5C130.3 95 123.7 92 117.2 90.5C110.7 89 104.3 89 97.8 89C91.3 89 84.7 89 78.2 92C71.7 95 65.3 101 58.8 101C52.3 101 45.7 95 39.2 92C32.7 89 26.3 89 19.8 92C13.3 95 6.7 101 3.3 104L0 107Z" fill="#7a4b9f"></path><path d="M0 235L3.3 226C6.7 217 13.3 199 19.8 191.5C26.3 184 32.7 187 39.2 193C45.7 199 52.3 208 58.8 208C65.3 208 71.7 199 78.2 193C84.7 187 91.3 184 97.8 185.5C104.3 187 110.7 193 117.2 197.5C123.7 202 130.3 205 137 205C143.7 205 150.3 202 156.8 200.5C163.3 199 169.7 199 176.2 193C182.7 187 189.3 175 195.8 172C202.3 169 208.7 175 215.2 176.5C221.7 178 228.3 175 234.8 182.5C241.3 190 247.7 208 254.2 212.5C260.7 217 267.3 208 273.8 202C280.3 196 286.7 193 293.2 193C299.7 193 306.3 196 313 200.5C319.7 205 326.3 211 332.8 206.5C339.3 202 345.7 187 352.2 184C358.7 181 365.3 190 371.8 193C378.3 196 384.7 193 391.2 193C397.7 193 404.3 196 410.8 199C417.3 202 423.7 205 430.2 199C436.7 193 443.3 178 446.7 170.5L450 163L450 125L446.7 131C443.3 137 436.7 149 430.2 155C423.7 161 417.3 161 410.8 156.5C404.3 152 397.7 143 391.2 143C384.7 143 378.3 152 371.8 153.5C365.3 155 358.7 149 352.2 149C345.7 149 339.3 155 332.8 158C326.3 161 319.7 161 313 156.5C306.3 152 299.7 143 293.2 141.5C286.7 140 280.3 146 273.8 152C267.3 158 260.7 164 254.2 161C247.7 158 241.3 146 234.8 141.5C228.3 137 221.7 140 215.2 138.5C208.7 137 202.3 131 195.8 132.5C189.3 134 182.7 143 176.2 147.5C169.7 152 163.3 152 156.8 152C150.3 152 143.7 152 137 153.5C130.3 155 123.7 158 117.2 158C110.7 158 104.3 155 97.8 155C91.3 155 84.7 158 78.2 159.5C71.7 161 65.3 161 58.8 159.5C52.3 158 45.7 155 39.2 150.5C32.7 146 26.3 140 19.8 144.5C13.3 149 6.7 164 3.3 171.5L0 179Z" fill="#7f50a1"></path><path d="M0 433L3.3 430C6.7 427 13.3 421 19.8 398.5C26.3 376 32.7 337 39.2 328C45.7 319 52.3 340 58.8 358C65.3 376 71.7 391 78.2 388C84.7 385 91.3 364 97.8 352C104.3 340 110.7 337 117.2 340C123.7 343 130.3 352 137 367C143.7 382 150.3 403 156.8 412C163.3 421 169.7 418 176.2 410.5C182.7 403 189.3 391 195.8 386.5C202.3 382 208.7 385 215.2 377.5C221.7 370 228.3 352 234.8 355C241.3 358 247.7 382 254.2 389.5C260.7 397 267.3 388 273.8 376C280.3 364 286.7 349 293.2 355C299.7 361 306.3 388 313 395.5C319.7 403 326.3 391 332.8 385C339.3 379 345.7 379 352.2 383.5C358.7 388 365.3 397 371.8 388C378.3 379 384.7 352 391.2 338.5C397.7 325 404.3 325 410.8 335.5C417.3 346 423.7 367 430.2 368.5C436.7 370 443.3 352 446.7 343L450 334L450 161L446.7 168.5C443.3 176 436.7 191 430.2 197C423.7 203 417.3 200 410.8 197C404.3 194 397.7 191 391.2 191C384.7 191 378.3 194 371.8 191C365.3 188 358.7 179 352.2 182C345.7 185 339.3 200 332.8 204.5C326.3 209 319.7 203 313 198.5C306.3 194 299.7 191 293.2 191C286.7 191 280.3 194 273.8 200C267.3 206 260.7 215 254.2 210.5C247.7 206 241.3 188 234.8 180.5C228.3 173 221.7 176 215.2 174.5C208.7 173 202.3 167 195.8 170C189.3 173 182.7 185 176.2 191C169.7 197 163.3 197 156.8 198.5C150.3 200 143.7 203 137 203C130.3 203 123.7 200 117.2 195.5C110.7 191 104.3 185 97.8 183.5C91.3 182 84.7 185 78.2 191C71.7 197 65.3 206 58.8 206C52.3 206 45.7 197 39.2 191C32.7 185 26.3 182 19.8 189.5C13.3 197 6.7 215 3.3 224L0 233Z" fill="#8456a4"></path><path d="M0 496L3.3 493C6.7 490 13.3 484 19.8 467.5C26.3 451 32.7 424 39.2 421C45.7 418 52.3 439 58.8 454C65.3 469 71.7 478 78.2 476.5C84.7 475 91.3 463 97.8 454C104.3 445 110.7 439 117.2 439C123.7 439 130.3 445 137 458.5C143.7 472 150.3 493 156.8 500.5C163.3 508 169.7 502 176.2 493C182.7 484 189.3 472 195.8 467.5C202.3 463 208.7 466 215.2 463C221.7 460 228.3 451 234.8 451C241.3 451 247.7 460 254.2 461.5C260.7 463 267.3 457 273.8 446.5C280.3 436 286.7 421 293.2 431.5C299.7 442 306.3 478 313 491.5C319.7 505 326.3 496 332.8 488.5C339.3 481 345.7 475 352.2 475C358.7 475 365.3 481 371.8 470.5C378.3 460 384.7 433 391.2 424C397.7 415 404.3 424 410.8 436C417.3 448 423.7 463 430.2 466C436.7 469 443.3 460 446.7 455.5L450 451L450 332L446.7 341C443.3 350 436.7 368 430.2 366.5C423.7 365 417.3 344 410.8 333.5C404.3 323 397.7 323 391.2 336.5C384.7 350 378.3 377 371.8 386C365.3 395 358.7 386 352.2 381.5C345.7 377 339.3 377 332.8 383C326.3 389 319.7 401 313 393.5C306.3 386 299.7 359 293.2 353C286.7 347 280.3 362 273.8 374C267.3 386 260.7 395 254.2 387.5C247.7 380 241.3 356 234.8 353C228.3 350 221.7 368 215.2 375.5C208.7 383 202.3 380 195.8 384.5C189.3 389 182.7 401 176.2 408.5C169.7 416 163.3 419 156.8 410C150.3 401 143.7 380 137 365C130.3 350 123.7 341 117.2 338C110.7 335 104.3 338 97.8 350C91.3 362 84.7 383 78.2 386C71.7 389 65.3 374 58.8 356C52.3 338 45.7 317 39.2 326C32.7 335 26.3 374 19.8 396.5C13.3 419 6.7 425 3.3 428L0 431Z" fill="#895ca7"></path><path d="M0 541L3.3 535C6.7 529 13.3 517 19.8 499C26.3 481 32.7 457 39.2 457C45.7 457 52.3 481 58.8 497.5C65.3 514 71.7 523 78.2 521.5C84.7 520 91.3 508 97.8 497.5C104.3 487 110.7 478 117.2 476.5C123.7 475 130.3 481 137 494.5C143.7 508 150.3 529 156.8 538C163.3 547 169.7 544 176.2 535C182.7 526 189.3 511 195.8 508C202.3 505 208.7 514 215.2 514C221.7 514 228.3 505 234.8 503.5C241.3 502 247.7 508 254.2 505C260.7 502 267.3 490 273.8 479.5C280.3 469 286.7 460 293.2 470.5C299.7 481 306.3 511 313 521.5C319.7 532 326.3 523 332.8 518.5C339.3 514 345.7 514 352.2 514C358.7 514 365.3 514 371.8 502C378.3 490 384.7 466 391.2 460C397.7 454 404.3 466 410.8 476.5C417.3 487 423.7 496 430.2 497.5C436.7 499 443.3 493 446.7 490L450 487L450 449L446.7 453.5C443.3 458 436.7 467 430.2 464C423.7 461 417.3 446 410.8 434C404.3 422 397.7 413 391.2 422C384.7 431 378.3 458 371.8 468.5C365.3 479 358.7 473 352.2 473C345.7 473 339.3 479 332.8 486.5C326.3 494 319.7 503 313 489.5C306.3 476 299.7 440 293.2 429.5C286.7 419 280.3 434 273.8 444.5C267.3 455 260.7 461 254.2 459.5C247.7 458 241.3 449 234.8 449C228.3 449 221.7 458 215.2 461C208.7 464 202.3 461 195.8 465.5C189.3 470 182.7 482 176.2 491C169.7 500 163.3 506 156.8 498.5C150.3 491 143.7 470 137 456.5C130.3 443 123.7 437 117.2 437C110.7 437 104.3 443 97.8 452C91.3 461 84.7 473 78.2 474.5C71.7 476 65.3 467 58.8 452C52.3 437 45.7 416 39.2 419C32.7 422 26.3 449 19.8 465.5C13.3 482 6.7 488 3.3 491L0 494Z" fill="#8e62aa"></path><path d="M0 595L3.3 592C6.7 589 13.3 583 19.8 568C26.3 553 32.7 529 39.2 530.5C45.7 532 52.3 559 58.8 578.5C65.3 598 71.7 610 78.2 607C84.7 604 91.3 586 97.8 574C104.3 562 110.7 556 117.2 551.5C123.7 547 130.3 544 137 556C143.7 568 150.3 595 156.8 604C163.3 613 169.7 604 176.2 593.5C182.7 583 189.3 571 195.8 571C202.3 571 208.7 583 215.2 583C221.7 583 228.3 571 234.8 571C241.3 571 247.7 583 254.2 581.5C260.7 580 267.3 565 273.8 553C280.3 541 286.7 532 293.2 545.5C299.7 559 306.3 595 313 602.5C319.7 610 326.3 589 332.8 581.5C339.3 574 345.7 580 352.2 581.5C358.7 583 365.3 580 371.8 571C378.3 562 384.7 547 391.2 542.5C397.7 538 404.3 544 410.8 548.5C417.3 553 423.7 556 430.2 557.5C436.7 559 443.3 559 446.7 559L450 559L450 485L446.7 488C443.3 491 436.7 497 430.2 495.5C423.7 494 417.3 485 410.8 474.5C404.3 464 397.7 452 391.2 458C384.7 464 378.3 488 371.8 500C365.3 512 358.7 512 352.2 512C345.7 512 339.3 512 332.8 516.5C326.3 521 319.7 530 313 519.5C306.3 509 299.7 479 293.2 468.5C286.7 458 280.3 467 273.8 477.5C267.3 488 260.7 500 254.2 503C247.7 506 241.3 500 234.8 501.5C228.3 503 221.7 512 215.2 512C208.7 512 202.3 503 195.8 506C189.3 509 182.7 524 176.2 533C169.7 542 163.3 545 156.8 536C150.3 527 143.7 506 137 492.5C130.3 479 123.7 473 117.2 474.5C110.7 476 104.3 485 97.8 495.5C91.3 506 84.7 518 78.2 519.5C71.7 521 65.3 512 58.8 495.5C52.3 479 45.7 455 39.2 455C32.7 455 26.3 479 19.8 497C13.3 515 6.7 527 3.3 533L0 539Z" fill="#9368ad"></path><path d="M0 721L3.3 710.5C6.7 700 13.3 679 19.8 665.5C26.3 652 32.7 646 39.2 644.5C45.7 643 52.3 646 58.8 656.5C65.3 667 71.7 685 78.2 686.5C84.7 688 91.3 673 97.8 668.5C104.3 664 110.7 670 117.2 665.5C123.7 661 130.3 646 137 649C143.7 652 150.3 673 156.8 682C163.3 691 169.7 688 176.2 691C182.7 694 189.3 703 195.8 700C202.3 697 208.7 682 215.2 673C221.7 664 228.3 661 234.8 661C241.3 661 247.7 664 254.2 661C260.7 658 267.3 649 273.8 641.5C280.3 634 286.7 628 293.2 643C299.7 658 306.3 694 313 698.5C319.7 703 326.3 676 332.8 670C339.3 664 345.7 679 352.2 689.5C358.7 700 365.3 706 371.8 692.5C378.3 679 384.7 646 391.2 632.5C397.7 619 404.3 625 410.8 634C417.3 643 423.7 655 430.2 659.5C436.7 664 443.3 661 446.7 659.5L450 658L450 557L446.7 557C443.3 557 436.7 557 430.2 555.5C423.7 554 417.3 551 410.8 546.5C404.3 542 397.7 536 391.2 540.5C384.7 545 378.3 560 371.8 569C365.3 578 358.7 581 352.2 579.5C345.7 578 339.3 572 332.8 579.5C326.3 587 319.7 608 313 600.5C306.3 593 299.7 557 293.2 543.5C286.7 530 280.3 539 273.8 551C267.3 563 260.7 578 254.2 579.5C247.7 581 241.3 569 234.8 569C228.3 569 221.7 581 215.2 581C208.7 581 202.3 569 195.8 569C189.3 569 182.7 581 176.2 591.5C169.7 602 163.3 611 156.8 602C150.3 593 143.7 566 137 554C130.3 542 123.7 545 117.2 549.5C110.7 554 104.3 560 97.8 572C91.3 584 84.7 602 78.2 605C71.7 608 65.3 596 58.8 576.5C52.3 557 45.7 530 39.2 528.5C32.7 527 26.3 551 19.8 566C13.3 581 6.7 587 3.3 590L0 593Z" fill="#986eb0"></path><path d="M0 865L3.3 862C6.7 859 13.3 853 19.8 850C26.3 847 32.7 847 39.2 847C45.7 847 52.3 847 58.8 850C65.3 853 71.7 859 78.2 859C84.7 859 91.3 853 97.8 848.5C104.3 844 110.7 841 117.2 841C123.7 841 130.3 844 137 845.5C143.7 847 150.3 847 156.8 847C163.3 847 169.7 847 176.2 848.5C182.7 850 189.3 853 195.8 851.5C202.3 850 208.7 844 215.2 844C221.7 844 228.3 850 234.8 854.5C241.3 859 247.7 862 254.2 863.5C260.7 865 267.3 865 273.8 862C280.3 859 286.7 853 293.2 853C299.7 853 306.3 859 313 857.5C319.7 856 326.3 847 332.8 847C339.3 847 345.7 856 352.2 857.5C358.7 859 365.3 853 371.8 851.5C378.3 850 384.7 853 391.2 854.5C397.7 856 404.3 856 410.8 853C417.3 850 423.7 844 430.2 845.5C436.7 847 443.3 856 446.7 860.5L450 865L450 656L446.7 657.5C443.3 659 436.7 662 430.2 657.5C423.7 653 417.3 641 410.8 632C404.3 623 397.7 617 391.2 630.5C384.7 644 378.3 677 371.8 690.5C365.3 704 358.7 698 352.2 687.5C345.7 677 339.3 662 332.8 668C326.3 674 319.7 701 313 696.5C306.3 692 299.7 656 293.2 641C286.7 626 280.3 632 273.8 639.5C267.3 647 260.7 656 254.2 659C247.7 662 241.3 659 234.8 659C228.3 659 221.7 662 215.2 671C208.7 680 202.3 695 195.8 698C189.3 701 182.7 692 176.2 689C169.7 686 163.3 689 156.8 680C150.3 671 143.7 650 137 647C130.3 644 123.7 659 117.2 663.5C110.7 668 104.3 662 97.8 666.5C91.3 671 84.7 686 78.2 684.5C71.7 683 65.3 665 58.8 654.5C52.3 644 45.7 641 39.2 642.5C32.7 644 26.3 650 19.8 663.5C13.3 677 6.7 698 3.3 708.5L0 719Z" fill="#9c74b3"></path><path d="M0 901L3.3 901C6.7 901 13.3 901 19.8 901C26.3 901 32.7 901 39.2 901C45.7 901 52.3 901 58.8 901C65.3 901 71.7 901 78.2 901C84.7 901 91.3 901 97.8 901C104.3 901 110.7 901 117.2 901C123.7 901 130.3 901 137 901C143.7 901 150.3 901 156.8 901C163.3 901 169.7 901 176.2 901C182.7 901 189.3 901 195.8 901C202.3 901 208.7 901 215.2 901C221.7 901 228.3 901 234.8 901C241.3 901 247.7 901 254.2 901C260.7 901 267.3 901 273.8 901C280.3 901 286.7 901 293.2 901C299.7 901 306.3 901 313 901C319.7 901 326.3 901 332.8 901C339.3 901 345.7 901 352.2 901C358.7 901 365.3 901 371.8 901C378.3 901 384.7 901 391.2 901C397.7 901 404.3 901 410.8 901C417.3 901 423.7 901 430.2 901C436.7 901 443.3 901 446.7 901L450 901L450 863L446.7 858.5C443.3 854 436.7 845 430.2 843.5C423.7 842 417.3 848 410.8 851C404.3 854 397.7 854 391.2 852.5C384.7 851 378.3 848 371.8 849.5C365.3 851 358.7 857 352.2 855.5C345.7 854 339.3 845 332.8 845C326.3 845 319.7 854 313 855.5C306.3 857 299.7 851 293.2 851C286.7 851 280.3 857 273.8 860C267.3 863 260.7 863 254.2 861.5C247.7 860 241.3 857 234.8 852.5C228.3 848 221.7 842 215.2 842C208.7 842 202.3 848 195.8 849.5C189.3 851 182.7 848 176.2 846.5C169.7 845 163.3 845 156.8 845C150.3 845 143.7 845 137 843.5C130.3 842 123.7 839 117.2 839C110.7 839 104.3 842 97.8 846.5C91.3 851 84.7 857 78.2 857C71.7 857 65.3 851 58.8 848C52.3 845 45.7 845 39.2 845C32.7 845 26.3 845 19.8 848C13.3 851 6.7 857 3.3 860L0 863Z" fill="#a17ab6"></path></svg>