<svg id="visual" viewBox="0 0 900 600" width="900" height="600" xmlns="http://www.w3.org/2000/svg" xmlns:xlink="http://www.w3.org/1999/xlink" version="1.1"><rect x="0" y="0" width="900" height="600" fill="#A17AB6"></rect><path d="M0 428L21.5 418.3C43 408.7 86 389.3 128.8 376C171.7 362.7 214.3 355.3 257.2 365C300 374.7 343 401.3 385.8 412.2C428.7 423 471.3 418 514.2 407.7C557 397.3 600 381.7 642.8 376.3C685.7 371 728.3 376 771.2 378.7C814 381.3 857 381.7 878.5 381.8L900 382L900 601L878.5 601C857 601 814 601 771.2 601C728.3 601 685.7 601 642.8 601C600 601 557 601 514.2 601C471.3 601 428.7 601 385.8 601C343 601 300 601 257.2 601C214.3 601 171.7 601 128.8 601C86 601 43 601 21.5 601L0 601Z" fill="#6f3f99"></path><path d="M0 395L21.5 398.2C43 401.3 86 407.7 128.8 418.2C171.7 428.7 214.3 443.3 257.2 444.5C300 445.7 343 433.3 385.8 432.5C428.7 431.7 471.3 442.3 514.2 444.7C557 447 600 441 642.8 443.5C685.7 446 728.3 457 771.2 454C814 451 857 434 878.5 425.5L900 417L900 601L878.5 601C857 601 814 601 771.2 601C728.3 601 685.7 601 642.8 601C600 601 557 601 514.2 601C471.3 601 428.7 601 385.8 601C343 601 300 601 257.2 601C214.3 601 171.7 601 128.8 601C86 601 43 601 21.5 601L0 601Z" fill="#673994"></path><path d="M0 443L21.5 446.5C43 450 86 457 128.8 455.8C171.7 454.7 214.3 445.3 257.2 449.2C300 453 343 470 385.8 478.2C428.7 486.3 471.3 485.7 514.2 480C557 474.3 600 463.7 642.8 460.5C685.7 457.3 728.3 461.7 771.2 463C814 464.3 857 462.7 878.5 461.8L900 461L900 601L878.5 601C857 601 814 601 771.2 601C728.3 601 685.7 601 642.8 601C600 601 557 601 514.2 601C471.3 601 428.7 601 385.8 601C343 601 300 601 257.2 601C214.3 601 171.7 601 128.8 601C86 601 43 601 21.5 601L0 601Z" fill="#5e3490"></path><path d="M0 528L21.5 520.2C43 512.3 86 496.7 128.8 493.5C171.7 490.3 214.3 499.7 257.2 503.8C300 508 343 507 385.8 508.3C428.7 509.7 471.3 513.3 514.2 509.5C557 505.7 600 494.3 642.8 489.3C685.7 484.3 728.3 485.7 771.2 495C814 504.3 857 521.7 878.5 530.3L900 539L900 601L878.5 601C857 601 814 601 771.2 601C728.3 601 685.7 601 642.8 601C600 601 557 601 514.2 601C471.3 601 428.7 601 385.8 601C343 601 300 601 257.2 601C214.3 601 171.7 601 128.8 601C86 601 43 601 21.5 601L0 601Z" fill="#562f8c"></path><path d="M0 547L21.5 545.3C43 543.7 86 540.3 128.8 540.7C171.7 541 214.3 545 257.2 549C300 553 343 557 385.8 559.3C428.7 561.7 471.3 562.3 514.2 557.8C557 553.3 600 543.7 642.8 542.7C685.7 541.7 728.3 549.3 771.2 553.3C814 557.3 857 557.7 878.5 557.8L900 558L900 601L878.5 601C857 601 814 601 771.2 601C728.3 601 685.7 601 642.8 601C600 601 557 601 514.2 601C471.3 601 428.7 601 385.8 601C343 601 300 601 257.2 601C214.3 601 171.7 601 128.8 601C86 601 43 601 21.5 601L0 601Z" fill="#4d2a88"></path></svg>