<svg id="visual" viewBox="0 0 900 600" width="900" height="600" xmlns="http://www.w3.org/2000/svg" xmlns:xlink="http://www.w3.org/1999/xlink" version="1.1"><g stroke-width="1" stroke-linejoin="bevel"><path d="M492 277.1L495 296.3L524 306.7Z" fill="#664793" stroke="#664793"></path><path d="M524 306.7L562 252L492 277.1Z" fill="#725598" stroke="#725598"></path><path d="M502 217.6L469 246L492 277.1Z" fill="#8872a3" stroke="#8872a3"></path><path d="M492 277.1L475 332.9L495 296.3Z" fill="#5a388e" stroke="#5a388e"></path><path d="M524 306.7L574 263.3L562 252Z" fill="#bdbdbd" stroke="#bdbdbd"></path><path d="M469 246L475 332.9L492 277.1Z" fill="#664793" stroke="#664793"></path><path d="M495 296.3L475 332.9L524 306.7Z" fill="#bdbdbd" stroke="#bdbdbd"></path><path d="M562 252L510 217.4L492 277.1Z" fill="#5a388e" stroke="#5a388e"></path><path d="M510 217.4L502 217.6L492 277.1Z" fill="#4d2a88" stroke="#4d2a88"></path><path d="M475 332.9L521 352.1L524 306.7Z" fill="#bdbdbd" stroke="#bdbdbd"></path><path d="M588 280.9L586 269.3L574 263.3Z" fill="#4d2a88" stroke="#4d2a88"></path><path d="M521 352.1L547 345.7L524 306.7Z" fill="#725598" stroke="#725598"></path><path d="M588 280.9L574 263.3L524 306.7Z" fill="#4d2a88" stroke="#4d2a88"></path><path d="M574 263.3L578 207.6L562 252Z" fill="#4d2a88" stroke="#4d2a88"></path><path d="M599 313L588 280.9L524 306.7Z" fill="#725598" stroke="#725598"></path><path d="M475 332.9L484 350.6L521 352.1Z" fill="#9e8fae" stroke="#9e8fae"></path><path d="M547 345.7L599 313L524 306.7Z" fill="#4d2a88" stroke="#4d2a88"></path><path d="M588 280.9L628 285.1L586 269.3Z" fill="#9381a8" stroke="#9381a8"></path><path d="M520 190.6L481 200L502 217.6Z" fill="#7d639e" stroke="#7d639e"></path><path d="M502 217.6L481 200L469 246Z" fill="#7d639e" stroke="#7d639e"></path><path d="M481 200L456 214.4L469 246Z" fill="#4d2a88" stroke="#4d2a88"></path><path d="M421 343.9L439 357L475 332.9Z" fill="#8872a3" stroke="#8872a3"></path><path d="M578 207.6L520 190.6L510 217.4Z" fill="#664793" stroke="#664793"></path><path d="M510 217.4L520 190.6L502 217.6Z" fill="#9e8fae" stroke="#9e8fae"></path><path d="M578 207.6L510 217.4L562 252Z" fill="#8872a3" stroke="#8872a3"></path><path d="M599 313L609 296.3L588 280.9Z" fill="#664793" stroke="#664793"></path><path d="M586 269.3L578 207.6L574 263.3Z" fill="#7d639e" stroke="#7d639e"></path><path d="M646 211.4L578 207.6L586 269.3Z" fill="#8872a3" stroke="#8872a3"></path><path d="M421 343.9L475 332.9L469 246Z" fill="#bdbdbd" stroke="#bdbdbd"></path><path d="M475 332.9L439 357L484 350.6Z" fill="#5a388e" stroke="#5a388e"></path><path d="M484 350.6L471 382L521 352.1Z" fill="#9e8fae" stroke="#9e8fae"></path><path d="M439 357L471 382L484 350.6Z" fill="#9e8fae" stroke="#9e8fae"></path><path d="M521 352.1L559 417.9L547 345.7Z" fill="#725598" stroke="#725598"></path><path d="M599 313L628 285.1L609 296.3Z" fill="#725598" stroke="#725598"></path><path d="M609 296.3L628 285.1L588 280.9Z" fill="#9381a8" stroke="#9381a8"></path><path d="M582 187.1L576 188.3L578 207.6Z" fill="#b3aeb8" stroke="#b3aeb8"></path><path d="M578 207.6L576 188.3L520 190.6Z" fill="#4d2a88" stroke="#4d2a88"></path><path d="M406 343.7L421 343.9L369 284.3Z" fill="#9381a8" stroke="#9381a8"></path><path d="M439 357L440 411.7L471 382Z" fill="#4d2a88" stroke="#4d2a88"></path><path d="M608 174.1L582 187.1L578 207.6Z" fill="#bdbdbd" stroke="#bdbdbd"></path><path d="M574 136.6L514 133.7L520 190.6Z" fill="#725598" stroke="#725598"></path><path d="M369 284.3L421 343.9L469 246Z" fill="#725598" stroke="#725598"></path><path d="M421 343.9L414 392.7L439 357Z" fill="#b3aeb8" stroke="#b3aeb8"></path><path d="M481 200L410 191.3L456 214.4Z" fill="#9381a8" stroke="#9381a8"></path><path d="M362 268L369 284.3L469 246Z" fill="#7d639e" stroke="#7d639e"></path><path d="M445 123.9L410 191.3L481 200Z" fill="#5a388e" stroke="#5a388e"></path><path d="M514 133.7L481 200L520 190.6Z" fill="#9e8fae" stroke="#9e8fae"></path><path d="M535 432.9L559 417.9L521 352.1Z" fill="#5a388e" stroke="#5a388e"></path><path d="M547 345.7L559 417.9L599 313Z" fill="#b3aeb8" stroke="#b3aeb8"></path><path d="M691 370L674 278.9L628 285.1Z" fill="#725598" stroke="#725598"></path><path d="M646 211.4L608 174.1L578 207.6Z" fill="#a89eb3" stroke="#a89eb3"></path><path d="M574 136.6L520 190.6L576 188.3Z" fill="#9e8fae" stroke="#9e8fae"></path><path d="M362 268L469 246L456 214.4Z" fill="#5a388e" stroke="#5a388e"></path><path d="M628 285.1L646 211.4L586 269.3Z" fill="#bdbdbd" stroke="#bdbdbd"></path><path d="M414 392.7L421 343.9L406 343.7Z" fill="#bdbdbd" stroke="#bdbdbd"></path><path d="M414 392.7L440 411.7L439 357Z" fill="#725598" stroke="#725598"></path><path d="M471 382L535 432.9L521 352.1Z" fill="#a89eb3" stroke="#a89eb3"></path><path d="M574 136.6L576 188.3L582 187.1Z" fill="#664793" stroke="#664793"></path><path d="M367 362.6L414 392.7L406 343.7Z" fill="#bdbdbd" stroke="#bdbdbd"></path><path d="M485 448.6L535 432.9L471 382Z" fill="#a89eb3" stroke="#a89eb3"></path><path d="M359 251.1L362 268L456 214.4Z" fill="#4d2a88" stroke="#4d2a88"></path><path d="M369 284.3L367 362.6L406 343.7Z" fill="#7d639e" stroke="#7d639e"></path><path d="M635 145.4L574 136.6L608 174.1Z" fill="#a89eb3" stroke="#a89eb3"></path><path d="M608 174.1L574 136.6L582 187.1Z" fill="#a89eb3" stroke="#a89eb3"></path><path d="M691 370L628 285.1L599 313Z" fill="#7d639e" stroke="#7d639e"></path><path d="M628 285.1L674 278.9L646 211.4Z" fill="#9e8fae" stroke="#9e8fae"></path><path d="M410 191.3L359 251.1L456 214.4Z" fill="#a89eb3" stroke="#a89eb3"></path><path d="M421 432.4L485 448.6L440 411.7Z" fill="#9381a8" stroke="#9381a8"></path><path d="M440 411.7L485 448.6L471 382Z" fill="#9381a8" stroke="#9381a8"></path><path d="M340 297.3L369 284.3L362 268Z" fill="#bdbdbd" stroke="#bdbdbd"></path><path d="M340 297.3L367 362.6L369 284.3Z" fill="#5a388e" stroke="#5a388e"></path><path d="M411 427.9L421 432.4L440 411.7Z" fill="#b3aeb8" stroke="#b3aeb8"></path><path d="M689 238.4L667 204.6L646 211.4Z" fill="#9e8fae" stroke="#9e8fae"></path><path d="M646 211.4L655 181.1L608 174.1Z" fill="#bdbdbd" stroke="#bdbdbd"></path><path d="M667 204.6L655 181.1L646 211.4Z" fill="#9381a8" stroke="#9381a8"></path><path d="M485 448.6L506 457.1L535 432.9Z" fill="#8872a3" stroke="#8872a3"></path><path d="M651 432.7L645 423.6L626 485.4Z" fill="#a89eb3" stroke="#a89eb3"></path><path d="M425 106.4L445 123.9L446 94.7Z" fill="#664793" stroke="#664793"></path><path d="M514 133.7L445 123.9L481 200Z" fill="#5a388e" stroke="#5a388e"></path><path d="M410 191.3L377 176.3L359 251.1Z" fill="#9e8fae" stroke="#9e8fae"></path><path d="M393 130.4L377 176.3L410 191.3Z" fill="#7d639e" stroke="#7d639e"></path><path d="M321 257.9L362 268L359 251.1Z" fill="#bdbdbd" stroke="#bdbdbd"></path><path d="M321 257.9L340 297.3L362 268Z" fill="#b3aeb8" stroke="#b3aeb8"></path><path d="M411 427.9L440 411.7L414 392.7Z" fill="#b3aeb8" stroke="#b3aeb8"></path><path d="M485 448.6L493 462.3L506 457.1Z" fill="#9e8fae" stroke="#9e8fae"></path><path d="M674 278.9L689 238.4L646 211.4Z" fill="#bdbdbd" stroke="#bdbdbd"></path><path d="M719 206L667 132.9L655 181.1Z" fill="#9381a8" stroke="#9381a8"></path><path d="M390 415.4L411 427.9L414 392.7Z" fill="#664793" stroke="#664793"></path><path d="M421 432.4L493 462.3L485 448.6Z" fill="#664793" stroke="#664793"></path><path d="M667 132.9L635 145.4L655 181.1Z" fill="#4d2a88" stroke="#4d2a88"></path><path d="M655 181.1L635 145.4L608 174.1Z" fill="#5a388e" stroke="#5a388e"></path><path d="M635 145.4L576 110.7L574 136.6Z" fill="#5a388e" stroke="#5a388e"></path><path d="M574 136.6L576 110.7L514 133.7Z" fill="#5a388e" stroke="#5a388e"></path><path d="M367 362.6L390 415.4L414 392.7Z" fill="#4d2a88" stroke="#4d2a88"></path><path d="M493 462.3L507 466.6L506 457.1Z" fill="#4d2a88" stroke="#4d2a88"></path><path d="M506 457.1L507 466.6L535 432.9Z" fill="#664793" stroke="#664793"></path><path d="M645 423.6L559 417.9L587 484.6Z" fill="#9e8fae" stroke="#9e8fae"></path><path d="M559 417.9L645 423.6L599 313Z" fill="#a89eb3" stroke="#a89eb3"></path><path d="M674 278.9L735 238.4L689 238.4Z" fill="#bdbdbd" stroke="#bdbdbd"></path><path d="M645 423.6L691 370L599 313Z" fill="#5a388e" stroke="#5a388e"></path><path d="M493 462.3L500 478.4L507 466.6Z" fill="#9381a8" stroke="#9381a8"></path><path d="M587 484.6L559 417.9L535 432.9Z" fill="#5a388e" stroke="#5a388e"></path><path d="M431 546.1L500 478.4L493 462.3Z" fill="#bdbdbd" stroke="#bdbdbd"></path><path d="M501 512.3L500 478.4L431 546.1Z" fill="#8872a3" stroke="#8872a3"></path><path d="M445 123.9L393 130.4L410 191.3Z" fill="#664793" stroke="#664793"></path><path d="M306 203.1L359 251.1L377 176.3Z" fill="#b3aeb8" stroke="#b3aeb8"></path><path d="M306 203.1L321 257.9L359 251.1Z" fill="#a89eb3" stroke="#a89eb3"></path><path d="M320 403.7L355 418.6L367 362.6Z" fill="#b3aeb8" stroke="#b3aeb8"></path><path d="M367 362.6L355 418.6L390 415.4Z" fill="#8872a3" stroke="#8872a3"></path><path d="M445 123.9L425 106.4L393 130.4Z" fill="#4d2a88" stroke="#4d2a88"></path><path d="M446 94.7L445 123.9L514 133.7Z" fill="#a89eb3" stroke="#a89eb3"></path><path d="M446 94.4L446 94.7L514 133.7Z" fill="#bdbdbd" stroke="#bdbdbd"></path><path d="M499 23.9L446 94.4L514 133.7Z" fill="#4d2a88" stroke="#4d2a88"></path><path d="M446 94.7L446 94.4L425 106.4Z" fill="#664793" stroke="#664793"></path><path d="M587 484.6L535 432.9L507 466.6Z" fill="#9381a8" stroke="#9381a8"></path><path d="M645 423.6L664 425.6L691 370Z" fill="#7d639e" stroke="#7d639e"></path><path d="M651 432.7L664 425.6L645 423.6Z" fill="#664793" stroke="#664793"></path><path d="M651 432.7L665 428.4L664 425.6Z" fill="#5a388e" stroke="#5a388e"></path><path d="M698 397.7L707 380.9L691 370Z" fill="#4d2a88" stroke="#4d2a88"></path><path d="M390 415.4L367 452.3L411 427.9Z" fill="#bdbdbd" stroke="#bdbdbd"></path><path d="M411 427.9L367 452.3L421 432.4Z" fill="#5a388e" stroke="#5a388e"></path><path d="M320 403.7L367 362.6L340 297.3Z" fill="#bdbdbd" stroke="#bdbdbd"></path><path d="M719 206L655 181.1L667 204.6Z" fill="#725598" stroke="#725598"></path><path d="M635 145.4L608 89.9L576 110.7Z" fill="#4d2a88" stroke="#4d2a88"></path><path d="M511 510.1L587 484.6L507 466.6Z" fill="#9e8fae" stroke="#9e8fae"></path><path d="M651 432.7L648 505.4L665 428.4Z" fill="#9e8fae" stroke="#9e8fae"></path><path d="M726 337.1L674 278.9L691 370Z" fill="#4d2a88" stroke="#4d2a88"></path><path d="M726 337.1L728 310.3L674 278.9Z" fill="#725598" stroke="#725598"></path><path d="M689 238.4L719 206L667 204.6Z" fill="#b3aeb8" stroke="#b3aeb8"></path><path d="M642 92.6L608 89.9L635 145.4Z" fill="#5a388e" stroke="#5a388e"></path><path d="M576 110.7L499 23.9L514 133.7Z" fill="#b3aeb8" stroke="#b3aeb8"></path><path d="M698 397.7L691 370L664 425.6Z" fill="#7d639e" stroke="#7d639e"></path><path d="M665 428.4L698 397.7L664 425.6Z" fill="#8872a3" stroke="#8872a3"></path><path d="M730 360.6L726 337.1L691 370Z" fill="#9381a8" stroke="#9381a8"></path><path d="M735 238.4L719 206L689 238.4Z" fill="#9381a8" stroke="#9381a8"></path><path d="M261 279.1L298 289L321 257.9Z" fill="#8872a3" stroke="#8872a3"></path><path d="M321 257.9L298 289L340 297.3Z" fill="#4d2a88" stroke="#4d2a88"></path><path d="M586 523.1L592 489.1L587 484.6Z" fill="#bdbdbd" stroke="#bdbdbd"></path><path d="M587 484.6L626 485.4L645 423.6Z" fill="#7d639e" stroke="#7d639e"></path><path d="M760 292.7L735 238.4L728 310.3Z" fill="#725598" stroke="#725598"></path><path d="M728 310.3L735 238.4L674 278.9Z" fill="#664793" stroke="#664793"></path><path d="M320 139.7L306 203.1L377 176.3Z" fill="#5a388e" stroke="#5a388e"></path><path d="M296 417.6L367 452.3L355 418.6Z" fill="#8872a3" stroke="#8872a3"></path><path d="M355 418.6L367 452.3L390 415.4Z" fill="#7d639e" stroke="#7d639e"></path><path d="M501 512.3L511 510.1L500 478.4Z" fill="#a89eb3" stroke="#a89eb3"></path><path d="M500 478.4L511 510.1L507 466.6Z" fill="#a89eb3" stroke="#a89eb3"></path><path d="M732 360.7L730 360.6L707 380.9Z" fill="#8872a3" stroke="#8872a3"></path><path d="M707 380.9L730 360.6L691 370Z" fill="#8872a3" stroke="#8872a3"></path><path d="M764 313.7L760 292.7L728 310.3Z" fill="#a89eb3" stroke="#a89eb3"></path><path d="M680 118.7L642 92.6L667 132.9Z" fill="#4d2a88" stroke="#4d2a88"></path><path d="M667 132.9L642 92.6L635 145.4Z" fill="#9381a8" stroke="#9381a8"></path><path d="M716 402.7L732 360.7L707 380.9Z" fill="#4d2a88" stroke="#4d2a88"></path><path d="M730 360.6L732 360.7L726 337.1Z" fill="#bdbdbd" stroke="#bdbdbd"></path><path d="M431 546.1L493 462.3L421 432.4Z" fill="#664793" stroke="#664793"></path><path d="M298 289L320 403.7L340 297.3Z" fill="#bdbdbd" stroke="#bdbdbd"></path><path d="M592 489.1L626 485.4L587 484.6Z" fill="#664793" stroke="#664793"></path><path d="M723 438.9L716 402.7L698 397.7Z" fill="#b3aeb8" stroke="#b3aeb8"></path><path d="M698 397.7L716 402.7L707 380.9Z" fill="#9381a8" stroke="#9381a8"></path><path d="M586 523.1L626 485.4L592 489.1Z" fill="#9381a8" stroke="#9381a8"></path><path d="M748 140.3L680 118.7L667 132.9Z" fill="#9e8fae" stroke="#9e8fae"></path><path d="M714 102.9L680 118.7L748 140.3Z" fill="#4d2a88" stroke="#4d2a88"></path><path d="M723 438.9L698 397.7L665 428.4Z" fill="#9381a8" stroke="#9381a8"></path><path d="M425 106.4L382 89.6L393 130.4Z" fill="#9e8fae" stroke="#9e8fae"></path><path d="M393 130.4L320 139.7L377 176.3Z" fill="#5a388e" stroke="#5a388e"></path><path d="M417 68.7L382 89.6L425 106.4Z" fill="#8872a3" stroke="#8872a3"></path><path d="M417 68.7L425 106.4L446 94.4Z" fill="#4d2a88" stroke="#4d2a88"></path><path d="M617 52.7L576 110.7L608 89.9Z" fill="#8872a3" stroke="#8872a3"></path><path d="M437 13.9L417 68.7L446 94.4Z" fill="#bdbdbd" stroke="#bdbdbd"></path><path d="M382 89.6L320 139.7L393 130.4Z" fill="#9381a8" stroke="#9381a8"></path><path d="M728 310.3L726 337.1L763 325Z" fill="#9e8fae" stroke="#9e8fae"></path><path d="M764 313.7L728 310.3L763 325Z" fill="#664793" stroke="#664793"></path><path d="M798 152.7L748 140.3L719 206Z" fill="#4d2a88" stroke="#4d2a88"></path><path d="M282 147.4L279 206.3L306 203.1Z" fill="#664793" stroke="#664793"></path><path d="M306 203.1L271 220.1L321 257.9Z" fill="#a89eb3" stroke="#a89eb3"></path><path d="M250 402.9L296 417.6L320 403.7Z" fill="#5a388e" stroke="#5a388e"></path><path d="M763 325L726 337.1L732 360.7Z" fill="#7d639e" stroke="#7d639e"></path><path d="M508 535.4L586 523.1L511 510.1Z" fill="#725598" stroke="#725598"></path><path d="M511 510.1L586 523.1L587 484.6Z" fill="#7d639e" stroke="#7d639e"></path><path d="M626 485.4L648 505.4L651 432.7Z" fill="#725598" stroke="#725598"></path><path d="M772 357.9L763 325L732 360.7Z" fill="#9e8fae" stroke="#9e8fae"></path><path d="M656 29.6L617 52.7L642 92.6Z" fill="#9e8fae" stroke="#9e8fae"></path><path d="M642 92.6L617 52.7L608 89.9Z" fill="#9e8fae" stroke="#9e8fae"></path><path d="M431 546.1L508 535.4L501 512.3Z" fill="#b3aeb8" stroke="#b3aeb8"></path><path d="M501 512.3L508 535.4L511 510.1Z" fill="#664793" stroke="#664793"></path><path d="M417 68.7L396 60.9L382 89.6Z" fill="#7d639e" stroke="#7d639e"></path><path d="M313 71.9L282 147.4L320 139.7Z" fill="#8872a3" stroke="#8872a3"></path><path d="M437 13.9L396 60.9L417 68.7Z" fill="#664793" stroke="#664793"></path><path d="M279 206.3L271 220.1L306 203.1Z" fill="#9e8fae" stroke="#9e8fae"></path><path d="M271 220.1L261 279.1L321 257.9Z" fill="#7d639e" stroke="#7d639e"></path><path d="M782 310.3L760 292.7L764 313.7Z" fill="#4d2a88" stroke="#4d2a88"></path><path d="M782 310.3L772 262.1L760 292.7Z" fill="#8872a3" stroke="#8872a3"></path><path d="M760 292.7L772 262.1L735 238.4Z" fill="#8872a3" stroke="#8872a3"></path><path d="M245 311.3L320 403.7L298 289Z" fill="#a89eb3" stroke="#a89eb3"></path><path d="M320 403.7L296 417.6L355 418.6Z" fill="#9381a8" stroke="#9381a8"></path><path d="M367 452.3L431 546.1L421 432.4Z" fill="#4d2a88" stroke="#4d2a88"></path><path d="M245 311.3L258 293L244 302.1Z" fill="#8872a3" stroke="#8872a3"></path><path d="M261 279.1L258 293L298 289Z" fill="#725598" stroke="#725598"></path><path d="M642 533.1L648 505.4L626 485.4Z" fill="#4d2a88" stroke="#4d2a88"></path><path d="M648 505.4L723 438.9L665 428.4Z" fill="#bdbdbd" stroke="#bdbdbd"></path><path d="M716 402.7L760 377.9L732 360.7Z" fill="#664793" stroke="#664793"></path><path d="M538 2.7L499 23.9L576 110.7Z" fill="#bdbdbd" stroke="#bdbdbd"></path><path d="M279 206.3L263 224.1L271 220.1Z" fill="#664793" stroke="#664793"></path><path d="M271 220.1L263 224.1L261 279.1Z" fill="#b3aeb8" stroke="#b3aeb8"></path><path d="M232 180.7L263 224.1L279 206.3Z" fill="#a89eb3" stroke="#a89eb3"></path><path d="M766 433.6L760 377.9L716 402.7Z" fill="#9381a8" stroke="#9381a8"></path><path d="M763 325L782 310.3L764 313.7Z" fill="#9381a8" stroke="#9381a8"></path><path d="M642 533.1L653 511.6L648 505.4Z" fill="#725598" stroke="#725598"></path><path d="M648 505.4L653 511.6L723 438.9Z" fill="#bdbdbd" stroke="#bdbdbd"></path><path d="M760 377.9L772 357.9L732 360.7Z" fill="#9e8fae" stroke="#9e8fae"></path><path d="M772 357.9L782 310.3L763 325Z" fill="#5a388e" stroke="#5a388e"></path><path d="M748 140.3L667 132.9L719 206Z" fill="#7d639e" stroke="#7d639e"></path><path d="M680 118.7L714 102.9L642 92.6Z" fill="#8872a3" stroke="#8872a3"></path><path d="M341 74.6L320 139.7L382 89.6Z" fill="#664793" stroke="#664793"></path><path d="M320 139.7L282 147.4L306 203.1Z" fill="#664793" stroke="#664793"></path><path d="M320 48.7L341 74.6L332 28.7Z" fill="#725598" stroke="#725598"></path><path d="M396 60.9L341 74.6L382 89.6Z" fill="#725598" stroke="#725598"></path><path d="M806 228.4L735 238.4L772 262.1Z" fill="#664793" stroke="#664793"></path><path d="M806 228.4L719 206L735 238.4Z" fill="#b3aeb8" stroke="#b3aeb8"></path><path d="M244 302.1L258 293L261 279.1Z" fill="#bdbdbd" stroke="#bdbdbd"></path><path d="M258 293L245 311.3L298 289Z" fill="#7d639e" stroke="#7d639e"></path><path d="M201 275.9L244 302.1L261 279.1Z" fill="#9e8fae" stroke="#9e8fae"></path><path d="M330 523.4L431 546.1L367 452.3Z" fill="#9e8fae" stroke="#9e8fae"></path><path d="M586 523.1L642 533.1L626 485.4Z" fill="#4d2a88" stroke="#4d2a88"></path><path d="M777 475.4L766 433.6L723 438.9Z" fill="#7d639e" stroke="#7d639e"></path><path d="M629 584.3L642 533.1L586 523.1Z" fill="#7d639e" stroke="#7d639e"></path><path d="M551 593.3L586 523.1L508 535.4Z" fill="#9381a8" stroke="#9381a8"></path><path d="M499 23.9L437 13.9L446 94.4Z" fill="#5a388e" stroke="#5a388e"></path><path d="M250 402.9L278 432.7L296 417.6Z" fill="#5a388e" stroke="#5a388e"></path><path d="M296 417.6L278 432.7L367 452.3Z" fill="#b3aeb8" stroke="#b3aeb8"></path><path d="M617 52.7L538 2.7L576 110.7Z" fill="#9381a8" stroke="#9381a8"></path><path d="M499 23.9L475 0L437 13.9Z" fill="#bdbdbd" stroke="#bdbdbd"></path><path d="M541 0L538 2.7L617 52.7Z" fill="#664793" stroke="#664793"></path><path d="M538 2.7L507 0L499 23.9Z" fill="#a89eb3" stroke="#a89eb3"></path><path d="M624 0L541 0L617 52.7Z" fill="#bdbdbd" stroke="#bdbdbd"></path><path d="M538 2.7L541 0L507 0Z" fill="#725598" stroke="#725598"></path><path d="M507 0L482 0L499 23.9Z" fill="#7d639e" stroke="#7d639e"></path><path d="M482 0L475 0L499 23.9Z" fill="#9381a8" stroke="#9381a8"></path><path d="M714 36.9L642 92.6L714 102.9Z" fill="#7d639e" stroke="#7d639e"></path><path d="M714 36.9L656 29.6L642 92.6Z" fill="#9381a8" stroke="#9381a8"></path><path d="M297 64.6L260 146.4L282 147.4Z" fill="#a89eb3" stroke="#a89eb3"></path><path d="M282 147.4L260 146.4L279 206.3Z" fill="#664793" stroke="#664793"></path><path d="M263 224.1L229 230.4L261 279.1Z" fill="#a89eb3" stroke="#a89eb3"></path><path d="M760 377.9L819 455.3L772 357.9Z" fill="#4d2a88" stroke="#4d2a88"></path><path d="M772 357.9L858 319L782 310.3Z" fill="#a89eb3" stroke="#a89eb3"></path><path d="M723 438.9L766 433.6L716 402.7Z" fill="#5a388e" stroke="#5a388e"></path><path d="M777 475.4L723 438.9L653 511.6Z" fill="#a89eb3" stroke="#a89eb3"></path><path d="M245 311.3L250 402.9L320 403.7Z" fill="#4d2a88" stroke="#4d2a88"></path><path d="M214 342.6L250 402.9L245 311.3Z" fill="#8872a3" stroke="#8872a3"></path><path d="M232 180.7L229 230.4L263 224.1Z" fill="#b3aeb8" stroke="#b3aeb8"></path><path d="M202 337.9L214 342.6L245 311.3Z" fill="#9381a8" stroke="#9381a8"></path><path d="M320 48.7L313 71.9L341 74.6Z" fill="#9e8fae" stroke="#9e8fae"></path><path d="M341 74.6L313 71.9L320 139.7Z" fill="#b3aeb8" stroke="#b3aeb8"></path><path d="M858 319L806 228.4L782 310.3Z" fill="#a89eb3" stroke="#a89eb3"></path><path d="M782 310.3L806 228.4L772 262.1Z" fill="#8872a3" stroke="#8872a3"></path><path d="M475 0L419 0L437 13.9Z" fill="#664793" stroke="#664793"></path><path d="M437 13.9L419 0L396 60.9Z" fill="#5a388e" stroke="#5a388e"></path><path d="M748 140.3L746 87.6L714 102.9Z" fill="#bdbdbd" stroke="#bdbdbd"></path><path d="M781 122.4L746 87.6L748 140.3Z" fill="#664793" stroke="#664793"></path><path d="M205 185.6L178 108.6L176 170.1Z" fill="#7d639e" stroke="#7d639e"></path><path d="M260 146.4L232 180.7L279 206.3Z" fill="#7d639e" stroke="#7d639e"></path><path d="M675 0L624 0L656 29.6Z" fill="#bdbdbd" stroke="#bdbdbd"></path><path d="M656 29.6L624 0L617 52.7Z" fill="#9381a8" stroke="#9381a8"></path><path d="M262 517.4L330 523.4L278 432.7Z" fill="#8872a3" stroke="#8872a3"></path><path d="M278 432.7L330 523.4L367 452.3Z" fill="#4d2a88" stroke="#4d2a88"></path><path d="M332 28.7L341 74.6L396 60.9Z" fill="#9381a8" stroke="#9381a8"></path><path d="M313 71.9L297 64.6L282 147.4Z" fill="#7d639e" stroke="#7d639e"></path><path d="M201 275.9L261 279.1L229 230.4Z" fill="#a89eb3" stroke="#a89eb3"></path><path d="M202 337.9L245 311.3L244 302.1Z" fill="#9381a8" stroke="#9381a8"></path><path d="M320 48.7L297 64.6L313 71.9Z" fill="#9e8fae" stroke="#9e8fae"></path><path d="M792 136.7L781 122.4L748 140.3Z" fill="#5a388e" stroke="#5a388e"></path><path d="M806 228.4L798 152.7L719 206Z" fill="#a89eb3" stroke="#a89eb3"></path><path d="M551 593.3L508 535.4L488 609.3Z" fill="#8872a3" stroke="#8872a3"></path><path d="M549 600L551 593.3L488 609.3Z" fill="#4d2a88" stroke="#4d2a88"></path><path d="M798 152.7L792 136.7L748 140.3Z" fill="#5a388e" stroke="#5a388e"></path><path d="M368 0L332 28.7L396 60.9Z" fill="#9e8fae" stroke="#9e8fae"></path><path d="M320 48.7L303 0L297 64.6Z" fill="#664793" stroke="#664793"></path><path d="M798 152.7L795 137.7L792 136.7Z" fill="#664793" stroke="#664793"></path><path d="M792 136.7L795 137.7L781 122.4Z" fill="#725598" stroke="#725598"></path><path d="M191 236L201 275.9L229 230.4Z" fill="#4d2a88" stroke="#4d2a88"></path><path d="M703 0L714 36.9L772 0Z" fill="#5a388e" stroke="#5a388e"></path><path d="M746 87.6L714 36.9L714 102.9Z" fill="#7d639e" stroke="#7d639e"></path><path d="M714 36.9L746 87.6L772 0Z" fill="#b3aeb8" stroke="#b3aeb8"></path><path d="M300 552.3L345 549.3L330 523.4Z" fill="#b3aeb8" stroke="#b3aeb8"></path><path d="M330 523.4L345 549.3L431 546.1Z" fill="#9381a8" stroke="#9381a8"></path><path d="M458 600L508 535.4L431 546.1Z" fill="#4d2a88" stroke="#4d2a88"></path><path d="M551 593.3L566 600L586 523.1Z" fill="#664793" stroke="#664793"></path><path d="M201 275.9L202 337.9L244 302.1Z" fill="#664793" stroke="#664793"></path><path d="M214 342.6L199 378.7L250 402.9Z" fill="#4d2a88" stroke="#4d2a88"></path><path d="M250 402.9L226 468.3L278 432.7Z" fill="#bdbdbd" stroke="#bdbdbd"></path><path d="M419 0L368 0L396 60.9Z" fill="#7d639e" stroke="#7d639e"></path><path d="M549 600L566 600L551 593.3Z" fill="#8872a3" stroke="#8872a3"></path><path d="M786 523.1L777 475.4L653 511.6Z" fill="#664793" stroke="#664793"></path><path d="M566 600L629 584.3L586 523.1Z" fill="#8872a3" stroke="#8872a3"></path><path d="M439 600L458 600L431 546.1Z" fill="#725598" stroke="#725598"></path><path d="M719 600L653 511.6L642 533.1Z" fill="#9381a8" stroke="#9381a8"></path><path d="M874 417.9L858 319L772 357.9Z" fill="#5a388e" stroke="#5a388e"></path><path d="M714 36.9L675 0L656 29.6Z" fill="#b3aeb8" stroke="#b3aeb8"></path><path d="M635 600L637 585.3L629 584.3Z" fill="#4d2a88" stroke="#4d2a88"></path><path d="M629 584.3L637 585.3L642 533.1Z" fill="#bdbdbd" stroke="#bdbdbd"></path><path d="M205 185.6L232 180.7L178 108.6Z" fill="#9e8fae" stroke="#9e8fae"></path><path d="M232 180.7L205 185.6L229 230.4Z" fill="#664793" stroke="#664793"></path><path d="M418 600L439 600L431 546.1Z" fill="#9381a8" stroke="#9381a8"></path><path d="M458 600L488 609.3L508 535.4Z" fill="#9e8fae" stroke="#9e8fae"></path><path d="M549 600L495 637.1L566 600Z" fill="#664793" stroke="#664793"></path><path d="M495 637.1L488 609.3L458 600Z" fill="#8872a3" stroke="#8872a3"></path><path d="M205 185.6L191 236L229 230.4Z" fill="#5a388e" stroke="#5a388e"></path><path d="M181 320.9L183 324.7L202 337.9Z" fill="#725598" stroke="#725598"></path><path d="M196 369L214 342.6L202 337.9Z" fill="#a89eb3" stroke="#a89eb3"></path><path d="M196 369L199 378.7L214 342.6Z" fill="#8872a3" stroke="#8872a3"></path><path d="M183 324.7L196 369L202 337.9Z" fill="#b3aeb8" stroke="#b3aeb8"></path><path d="M345 549.3L418 600L431 546.1Z" fill="#b3aeb8" stroke="#b3aeb8"></path><path d="M439 600L495 637.1L458 600Z" fill="#5a388e" stroke="#5a388e"></path><path d="M194 386.4L203 400.7L199 378.7Z" fill="#7d639e" stroke="#7d639e"></path><path d="M199 378.7L203 400.7L250 402.9Z" fill="#4d2a88" stroke="#4d2a88"></path><path d="M507 0L487 -50.1L482 0Z" fill="#664793" stroke="#664793"></path><path d="M482 0L487 -50.1L475 0Z" fill="#725598" stroke="#725598"></path><path d="M475 0L487 -50.1L419 0Z" fill="#664793" stroke="#664793"></path><path d="M419 0L357 -50.1L368 0Z" fill="#7d639e" stroke="#7d639e"></path><path d="M541 0L487 -50.1L507 0Z" fill="#9e8fae" stroke="#9e8fae"></path><path d="M624 0L487 -50.1L541 0Z" fill="#5a388e" stroke="#5a388e"></path><path d="M675 0L487 -50.1L624 0Z" fill="#7d639e" stroke="#7d639e"></path><path d="M181 320.9L202 337.9L201 275.9Z" fill="#664793" stroke="#664793"></path><path d="M196 369L194 386.4L199 378.7Z" fill="#bdbdbd" stroke="#bdbdbd"></path><path d="M140 266L181 320.9L201 275.9Z" fill="#9381a8" stroke="#9381a8"></path><path d="M163 415.9L194 386.4L132 395.4Z" fill="#4d2a88" stroke="#4d2a88"></path><path d="M194 386.4L196 369L132 395.4Z" fill="#5a388e" stroke="#5a388e"></path><path d="M495 637.1L635 600L566 600Z" fill="#8872a3" stroke="#8872a3"></path><path d="M566 600L635 600L629 584.3Z" fill="#5a388e" stroke="#5a388e"></path><path d="M637 585.3L669 600L642 533.1Z" fill="#bdbdbd" stroke="#bdbdbd"></path><path d="M714 36.9L703 0L675 0Z" fill="#664793" stroke="#664793"></path><path d="M675 0L703 0L487 -50.1Z" fill="#bdbdbd" stroke="#bdbdbd"></path><path d="M803 89.6L746 87.6L781 122.4Z" fill="#a89eb3" stroke="#a89eb3"></path><path d="M819 455.3L760 377.9L766 433.6Z" fill="#4d2a88" stroke="#4d2a88"></path><path d="M873 171.3L868 157.1L798 152.7Z" fill="#b3aeb8" stroke="#b3aeb8"></path><path d="M868 157.1L803 89.6L795 137.7Z" fill="#7d639e" stroke="#7d639e"></path><path d="M165 466.3L226 468.3L203 400.7Z" fill="#a89eb3" stroke="#a89eb3"></path><path d="M203 400.7L226 468.3L250 402.9Z" fill="#8872a3" stroke="#8872a3"></path><path d="M345 549.3L354 600L418 600Z" fill="#5a388e" stroke="#5a388e"></path><path d="M262 517.4L300 552.3L330 523.4Z" fill="#664793" stroke="#664793"></path><path d="M226 468.3L262 517.4L278 432.7Z" fill="#bdbdbd" stroke="#bdbdbd"></path><path d="M868 157.1L795 137.7L798 152.7Z" fill="#9381a8" stroke="#9381a8"></path><path d="M795 137.7L803 89.6L781 122.4Z" fill="#a89eb3" stroke="#a89eb3"></path><path d="M824 519.3L819 455.3L777 475.4Z" fill="#8872a3" stroke="#8872a3"></path><path d="M777 475.4L819 455.3L766 433.6Z" fill="#9381a8" stroke="#9381a8"></path><path d="M749 617.1L669 600L635 600Z" fill="#4d2a88" stroke="#4d2a88"></path><path d="M635 600L669 600L637 585.3Z" fill="#9381a8" stroke="#9381a8"></path><path d="M148 223.3L165 247.4L191 236Z" fill="#9381a8" stroke="#9381a8"></path><path d="M191 236L165 247.4L201 275.9Z" fill="#4d2a88" stroke="#4d2a88"></path><path d="M130 334.6L196 369L183 324.7Z" fill="#725598" stroke="#725598"></path><path d="M332 28.7L303 0L320 48.7Z" fill="#5a388e" stroke="#5a388e"></path><path d="M178 108.6L232 180.7L260 146.4Z" fill="#664793" stroke="#664793"></path><path d="M205 185.6L148 223.3L191 236Z" fill="#b3aeb8" stroke="#b3aeb8"></path><path d="M368 0L303 0L332 28.7Z" fill="#7d639e" stroke="#7d639e"></path><path d="M357 -50.1L303 0L368 0Z" fill="#664793" stroke="#664793"></path><path d="M418 600L495 637.1L439 600Z" fill="#4d2a88" stroke="#4d2a88"></path><path d="M488 609.3L495 637.1L549 600Z" fill="#b3aeb8" stroke="#b3aeb8"></path><path d="M354 600L495 637.1L418 600Z" fill="#664793" stroke="#664793"></path><path d="M318 600L354 600L345 549.3Z" fill="#7d639e" stroke="#7d639e"></path><path d="M233 59.9L260 146.4L297 64.6Z" fill="#4d2a88" stroke="#4d2a88"></path><path d="M270 0L233 59.9L297 64.6Z" fill="#b3aeb8" stroke="#b3aeb8"></path><path d="M719 600L786 523.1L653 511.6Z" fill="#664793" stroke="#664793"></path><path d="M270 0L226 59.6L233 59.9Z" fill="#4d2a88" stroke="#4d2a88"></path><path d="M233 59.9L178 108.6L260 146.4Z" fill="#a89eb3" stroke="#a89eb3"></path><path d="M487 -50.1L357 -50.1L419 0Z" fill="#8872a3" stroke="#8872a3"></path><path d="M303 0L270 0L297 64.6Z" fill="#5a388e" stroke="#5a388e"></path><path d="M176 170.1L148 223.3L205 185.6Z" fill="#9e8fae" stroke="#9e8fae"></path><path d="M165 247.4L140 266L201 275.9Z" fill="#7d639e" stroke="#7d639e"></path><path d="M125 205L148 223.3L176 170.1Z" fill="#8872a3" stroke="#8872a3"></path><path d="M298 600L318 600L300 552.3Z" fill="#9e8fae" stroke="#9e8fae"></path><path d="M300 552.3L318 600L345 549.3Z" fill="#9e8fae" stroke="#9e8fae"></path><path d="M354 600L252 618.1L495 637.1Z" fill="#5a388e" stroke="#5a388e"></path><path d="M298 600L300 552.3L273 600Z" fill="#a89eb3" stroke="#a89eb3"></path><path d="M873 171.3L798 152.7L806 228.4Z" fill="#4d2a88" stroke="#4d2a88"></path><path d="M900 247.9L873 171.3L806 228.4Z" fill="#9e8fae" stroke="#9e8fae"></path><path d="M273 -48.1L270 0L303 0Z" fill="#8872a3" stroke="#8872a3"></path><path d="M669 600L719 600L642 533.1Z" fill="#4d2a88" stroke="#4d2a88"></path><path d="M749 617.1L719 600L669 600Z" fill="#9381a8" stroke="#9381a8"></path><path d="M148 223.3L140 266L165 247.4Z" fill="#9e8fae" stroke="#9e8fae"></path><path d="M194 386.4L163 415.9L203 400.7Z" fill="#725598" stroke="#725598"></path><path d="M130 334.6L183 324.7L181 320.9Z" fill="#5a388e" stroke="#5a388e"></path><path d="M163 558.1L224 584.3L262 517.4Z" fill="#9381a8" stroke="#9381a8"></path><path d="M154 69.9L178 108.6L226 59.6Z" fill="#b3aeb8" stroke="#b3aeb8"></path><path d="M226 59.6L178 108.6L233 59.9Z" fill="#a89eb3" stroke="#a89eb3"></path><path d="M800 21.9L772 0L746 87.6Z" fill="#664793" stroke="#664793"></path><path d="M703 0L835 -14.1L487 -50.1Z" fill="#4d2a88" stroke="#4d2a88"></path><path d="M800 21.9L746 87.6L803 89.6Z" fill="#664793" stroke="#664793"></path><path d="M877 424.6L874 417.9L819 455.3Z" fill="#725598" stroke="#725598"></path><path d="M819 455.3L874 417.9L772 357.9Z" fill="#725598" stroke="#725598"></path><path d="M858 319L900 247.9L806 228.4Z" fill="#b3aeb8" stroke="#b3aeb8"></path><path d="M900 308.1L900 294.7L858 319Z" fill="#b3aeb8" stroke="#b3aeb8"></path><path d="M273 600L300 552.3L253 593.3Z" fill="#8872a3" stroke="#8872a3"></path><path d="M318 600L252 618.1L354 600Z" fill="#b3aeb8" stroke="#b3aeb8"></path><path d="M900 309L900 308.1L858 319Z" fill="#b3aeb8" stroke="#b3aeb8"></path><path d="M900 358.6L900 309L858 319Z" fill="#a89eb3" stroke="#a89eb3"></path><path d="M900 294.7L900 247.9L858 319Z" fill="#4d2a88" stroke="#4d2a88"></path><path d="M821 39.7L800 21.9L803 89.6Z" fill="#a89eb3" stroke="#a89eb3"></path><path d="M160 124.7L149 160.6L176 170.1Z" fill="#7d639e" stroke="#7d639e"></path><path d="M148 223.3L125 205L140 266Z" fill="#664793" stroke="#664793"></path><path d="M871 496.4L877 424.6L819 455.3Z" fill="#8872a3" stroke="#8872a3"></path><path d="M874 417.9L900 358.6L858 319Z" fill="#5a388e" stroke="#5a388e"></path><path d="M824 519.3L777 475.4L786 523.1Z" fill="#5a388e" stroke="#5a388e"></path><path d="M804 560.4L824 519.3L786 523.1Z" fill="#b3aeb8" stroke="#b3aeb8"></path><path d="M99 354.6L130 334.6L79 297.3Z" fill="#bdbdbd" stroke="#bdbdbd"></path><path d="M140 266L130 334.6L181 320.9Z" fill="#bdbdbd" stroke="#bdbdbd"></path><path d="M178 108.6L160 124.7L176 170.1Z" fill="#664793" stroke="#664793"></path><path d="M154 69.9L160 124.7L178 108.6Z" fill="#8872a3" stroke="#8872a3"></path><path d="M900 112.6L821 39.7L803 89.6Z" fill="#725598" stroke="#725598"></path><path d="M877 424.6L900 358.6L874 417.9Z" fill="#bdbdbd" stroke="#bdbdbd"></path><path d="M144 427.6L165 466.3L163 415.9Z" fill="#8872a3" stroke="#8872a3"></path><path d="M163 415.9L165 466.3L203 400.7Z" fill="#725598" stroke="#725598"></path><path d="M90 213.3L125 205L62 135.7Z" fill="#bdbdbd" stroke="#bdbdbd"></path><path d="M149 160.6L125 205L176 170.1Z" fill="#664793" stroke="#664793"></path><path d="M138 421.3L144 427.6L163 415.9Z" fill="#4d2a88" stroke="#4d2a88"></path><path d="M253 593.3L300 552.3L262 517.4Z" fill="#b3aeb8" stroke="#b3aeb8"></path><path d="M298 600L252 618.1L318 600Z" fill="#7d639e" stroke="#7d639e"></path><path d="M835 -14.1L798 0L800 21.9Z" fill="#8872a3" stroke="#8872a3"></path><path d="M800 21.9L798 0L772 0Z" fill="#a89eb3" stroke="#a89eb3"></path><path d="M772 0L835 -14.1L703 0Z" fill="#725598" stroke="#725598"></path><path d="M719 600L804 560.4L786 523.1Z" fill="#9e8fae" stroke="#9e8fae"></path><path d="M824 519.3L871 496.4L819 455.3Z" fill="#9e8fae" stroke="#9e8fae"></path><path d="M120 363L196 369L130 334.6Z" fill="#bdbdbd" stroke="#bdbdbd"></path><path d="M120 363L132 395.4L196 369Z" fill="#9e8fae" stroke="#9e8fae"></path><path d="M132 395.4L138 421.3L163 415.9Z" fill="#8872a3" stroke="#8872a3"></path><path d="M144 427.6L140 500.4L165 466.3Z" fill="#9381a8" stroke="#9381a8"></path><path d="M99 354.6L120 363L130 334.6Z" fill="#bdbdbd" stroke="#bdbdbd"></path><path d="M132 395.4L82 396.4L138 421.3Z" fill="#9381a8" stroke="#9381a8"></path><path d="M868 157.1L900 112.6L803 89.6Z" fill="#725598" stroke="#725598"></path><path d="M821 39.7L835 -14.1L800 21.9Z" fill="#5a388e" stroke="#5a388e"></path><path d="M873 171.3L900 155.7L868 157.1Z" fill="#a89eb3" stroke="#a89eb3"></path><path d="M909 169.1L900 155.7L873 171.3Z" fill="#8872a3" stroke="#8872a3"></path><path d="M900 155.7L900 153.3L868 157.1Z" fill="#725598" stroke="#725598"></path><path d="M247 595.1L253 593.3L224 584.3Z" fill="#9381a8" stroke="#9381a8"></path><path d="M900 153.3L900 148.4L868 157.1Z" fill="#bdbdbd" stroke="#bdbdbd"></path><path d="M495 637.1L749 617.1L635 600Z" fill="#bdbdbd" stroke="#bdbdbd"></path><path d="M719 600L749 617.1L804 560.4Z" fill="#5a388e" stroke="#5a388e"></path><path d="M900 155.7L909 169.1L900 153.3Z" fill="#7d639e" stroke="#7d639e"></path><path d="M900 153.3L909 169.1L900 148.4Z" fill="#725598" stroke="#725598"></path><path d="M900 247.9L909 169.1L873 171.3Z" fill="#7d639e" stroke="#7d639e"></path><path d="M948 200.6L909 169.1L900 247.9Z" fill="#664793" stroke="#664793"></path><path d="M951 263L900 247.9L900 294.7Z" fill="#8872a3" stroke="#8872a3"></path><path d="M951 263L900 294.7L900 308.1Z" fill="#7d639e" stroke="#7d639e"></path><path d="M951 263L900 308.1L900 309Z" fill="#664793" stroke="#664793"></path><path d="M357 -50.1L273 -48.1L303 0Z" fill="#b3aeb8" stroke="#b3aeb8"></path><path d="M188 12.7L154 69.9L226 59.6Z" fill="#725598" stroke="#725598"></path><path d="M224 584.3L253 593.3L262 517.4Z" fill="#bdbdbd" stroke="#bdbdbd"></path><path d="M253 593.3L252 618.1L273 600Z" fill="#a89eb3" stroke="#a89eb3"></path><path d="M900 520.4L871 496.4L824 519.3Z" fill="#a89eb3" stroke="#a89eb3"></path><path d="M877 424.6L906 450.7L900 358.6Z" fill="#664793" stroke="#664793"></path><path d="M843 600L824 519.3L804 560.4Z" fill="#8872a3" stroke="#8872a3"></path><path d="M163 558.1L262 517.4L226 468.3Z" fill="#725598" stroke="#725598"></path><path d="M163 558.1L226 468.3L165 466.3Z" fill="#9e8fae" stroke="#9e8fae"></path><path d="M903 114.4L900 112.9L900 148.4Z" fill="#8872a3" stroke="#8872a3"></path><path d="M900 148.4L900 112.9L868 157.1Z" fill="#bdbdbd" stroke="#bdbdbd"></path><path d="M903 114.4L900 112.6L900 112.9Z" fill="#a89eb3" stroke="#a89eb3"></path><path d="M900 112.9L900 112.6L868 157.1Z" fill="#664793" stroke="#664793"></path><path d="M188 12.7L226 59.6L270 0Z" fill="#8872a3" stroke="#8872a3"></path><path d="M62 135.7L125 205L149 160.6Z" fill="#bdbdbd" stroke="#bdbdbd"></path><path d="M909 169.1L903 114.4L900 148.4Z" fill="#5a388e" stroke="#5a388e"></path><path d="M868 0L835 -14.1L821 39.7Z" fill="#bdbdbd" stroke="#bdbdbd"></path><path d="M749 617.1L800 596.3L804 560.4Z" fill="#9381a8" stroke="#9381a8"></path><path d="M79 297.3L130 334.6L140 266Z" fill="#bdbdbd" stroke="#bdbdbd"></path><path d="M120 363L82 396.4L132 395.4Z" fill="#8872a3" stroke="#8872a3"></path><path d="M84 461.6L140 500.4L144 427.6Z" fill="#725598" stroke="#725598"></path><path d="M900 520.4L906 450.7L871 496.4Z" fill="#bdbdbd" stroke="#bdbdbd"></path><path d="M871 496.4L906 450.7L877 424.6Z" fill="#a89eb3" stroke="#a89eb3"></path><path d="M900 358.6L951 263L900 309Z" fill="#bdbdbd" stroke="#bdbdbd"></path><path d="M273 -48.1L188 12.7L270 0Z" fill="#9381a8" stroke="#9381a8"></path><path d="M224 584.3L252 618.1L247 595.1Z" fill="#9e8fae" stroke="#9e8fae"></path><path d="M247 595.1L252 618.1L253 593.3Z" fill="#bdbdbd" stroke="#bdbdbd"></path><path d="M273 600L252 618.1L298 600Z" fill="#5a388e" stroke="#5a388e"></path><path d="M799 612.1L803 599.1L800 596.3Z" fill="#9e8fae" stroke="#9e8fae"></path><path d="M800 596.3L822 600L804 560.4Z" fill="#4d2a88" stroke="#4d2a88"></path><path d="M115 113.4L149 160.6L160 124.7Z" fill="#a89eb3" stroke="#a89eb3"></path><path d="M125 205L90 213.3L140 266Z" fill="#a89eb3" stroke="#a89eb3"></path><path d="M749 617.1L799 612.1L800 596.3Z" fill="#664793" stroke="#664793"></path><path d="M803 599.1L822 600L800 596.3Z" fill="#4d2a88" stroke="#4d2a88"></path><path d="M84 461.6L144 427.6L138 421.3Z" fill="#664793" stroke="#664793"></path><path d="M224 584.3L198 627.1L252 618.1Z" fill="#8872a3" stroke="#8872a3"></path><path d="M952 518.4L951 263L900 358.6Z" fill="#9e8fae" stroke="#9e8fae"></path><path d="M909 169.1L948 200.6L903 114.4Z" fill="#9381a8" stroke="#9381a8"></path><path d="M117 92.7L160 124.7L154 69.9Z" fill="#664793" stroke="#664793"></path><path d="M117 92.7L115 113.4L160 124.7Z" fill="#b3aeb8" stroke="#b3aeb8"></path><path d="M868 0L821 39.7L893 31.9Z" fill="#4d2a88" stroke="#4d2a88"></path><path d="M798 0L835 -14.1L772 0Z" fill="#9381a8" stroke="#9381a8"></path><path d="M79 248.4L79 297.3L140 266Z" fill="#9e8fae" stroke="#9e8fae"></path><path d="M99 354.6L82 396.4L120 363Z" fill="#4d2a88" stroke="#4d2a88"></path><path d="M62 273.9L0 244.1L17 281.1Z" fill="#5a388e" stroke="#5a388e"></path><path d="M90 213.3L79 248.4L140 266Z" fill="#9e8fae" stroke="#9e8fae"></path><path d="M951 263L948 200.6L900 247.9Z" fill="#664793" stroke="#664793"></path><path d="M799 612.1L822 600L803 599.1Z" fill="#9e8fae" stroke="#9e8fae"></path><path d="M115 50.6L117 92.7L154 69.9Z" fill="#b3aeb8" stroke="#b3aeb8"></path><path d="M115 113.4L62 135.7L149 160.6Z" fill="#9e8fae" stroke="#9e8fae"></path><path d="M273 -48.1L174 0L188 12.7Z" fill="#4d2a88" stroke="#4d2a88"></path><path d="M188 12.7L174 0L154 69.9Z" fill="#725598" stroke="#725598"></path><path d="M749 617.1L795 632.1L799 612.1Z" fill="#725598" stroke="#725598"></path><path d="M799 612.1L795 632.1L822 600Z" fill="#5a388e" stroke="#5a388e"></path><path d="M495 637.1L795 632.1L749 617.1Z" fill="#4d2a88" stroke="#4d2a88"></path><path d="M140 500.4L163 558.1L165 466.3Z" fill="#9381a8" stroke="#9381a8"></path><path d="M0 359L82 396.4L99 354.6Z" fill="#9e8fae" stroke="#9e8fae"></path><path d="M140 500.4L131 522.3L163 558.1Z" fill="#a89eb3" stroke="#a89eb3"></path><path d="M900 561.3L900 520.4L824 519.3Z" fill="#725598" stroke="#725598"></path><path d="M906 450.7L952 518.4L900 358.6Z" fill="#5a388e" stroke="#5a388e"></path><path d="M843 600L804 560.4L822 600Z" fill="#9381a8" stroke="#9381a8"></path><path d="M893 31.9L821 39.7L900 112.6Z" fill="#b3aeb8" stroke="#b3aeb8"></path><path d="M893 31.9L900 112.6L903 114.4Z" fill="#725598" stroke="#725598"></path><path d="M900 0L893 31.9L903 114.4Z" fill="#7d639e" stroke="#7d639e"></path><path d="M84 461.6L131 522.3L140 500.4Z" fill="#a89eb3" stroke="#a89eb3"></path><path d="M49 288.7L62 273.9L17 281.1Z" fill="#9381a8" stroke="#9381a8"></path><path d="M79 248.4L62 273.9L79 297.3Z" fill="#664793" stroke="#664793"></path><path d="M56 416.7L71 410.6L82 396.4Z" fill="#5a388e" stroke="#5a388e"></path><path d="M795 632.1L843 600L822 600Z" fill="#b3aeb8" stroke="#b3aeb8"></path><path d="M82 396.4L71 410.6L138 421.3Z" fill="#bdbdbd" stroke="#bdbdbd"></path><path d="M49 288.7L99 354.6L79 297.3Z" fill="#725598" stroke="#725598"></path><path d="M154 614.1L178 600L163 558.1Z" fill="#7d639e" stroke="#7d639e"></path><path d="M163 558.1L178 600L224 584.3Z" fill="#4d2a88" stroke="#4d2a88"></path><path d="M127 0L115 50.6L154 69.9Z" fill="#5a388e" stroke="#5a388e"></path><path d="M64 108.9L62 135.7L115 113.4Z" fill="#bdbdbd" stroke="#bdbdbd"></path><path d="M62 273.9L79 248.4L0 244.1Z" fill="#9381a8" stroke="#9381a8"></path><path d="M62 273.9L49 288.7L79 297.3Z" fill="#7d639e" stroke="#7d639e"></path><path d="M71 410.6L84 461.6L138 421.3Z" fill="#7d639e" stroke="#7d639e"></path><path d="M125 600L154 614.1L163 558.1Z" fill="#8872a3" stroke="#8872a3"></path><path d="M178 600L198 627.1L224 584.3Z" fill="#5a388e" stroke="#5a388e"></path><path d="M252 618.1L198 627.1L495 637.1Z" fill="#7d639e" stroke="#7d639e"></path><path d="M843 600L900 561.3L824 519.3Z" fill="#4d2a88" stroke="#4d2a88"></path><path d="M900 520.4L952 518.4L906 450.7Z" fill="#4d2a88" stroke="#4d2a88"></path><path d="M948 200.6L900 0L903 114.4Z" fill="#725598" stroke="#725598"></path><path d="M893 31.9L900 0L868 0Z" fill="#664793" stroke="#664793"></path><path d="M868 0L900 0L835 -14.1Z" fill="#a89eb3" stroke="#a89eb3"></path><path d="M64 108.9L115 113.4L117 92.7Z" fill="#a89eb3" stroke="#a89eb3"></path><path d="M0 385.6L56 416.7L82 396.4Z" fill="#9381a8" stroke="#9381a8"></path><path d="M71 410.6L56 416.7L84 461.6Z" fill="#bdbdbd" stroke="#bdbdbd"></path><path d="M174 0L127 0L154 69.9Z" fill="#7d639e" stroke="#7d639e"></path><path d="M115 50.6L64 108.9L117 92.7Z" fill="#4d2a88" stroke="#4d2a88"></path><path d="M273 -48.1L127 0L174 0Z" fill="#725598" stroke="#725598"></path><path d="M795 632.1L882 600L843 600Z" fill="#8872a3" stroke="#8872a3"></path><path d="M843 600L882 600L900 561.3Z" fill="#a89eb3" stroke="#a89eb3"></path><path d="M35 0L64 108.9L115 50.6Z" fill="#9381a8" stroke="#9381a8"></path><path d="M0 244.1L79 248.4L0 236.4Z" fill="#bdbdbd" stroke="#bdbdbd"></path><path d="M125 600L163 558.1L131 522.3Z" fill="#7d639e" stroke="#7d639e"></path><path d="M178 600L154 614.1L198 627.1Z" fill="#a89eb3" stroke="#a89eb3"></path><path d="M125 600L131 522.3L66 600Z" fill="#a89eb3" stroke="#a89eb3"></path><path d="M882 600L900 589.1L900 561.3Z" fill="#a89eb3" stroke="#a89eb3"></path><path d="M900 561.3L952 518.4L900 520.4Z" fill="#5a388e" stroke="#5a388e"></path><path d="M922 590.3L952 518.4L900 561.3Z" fill="#bdbdbd" stroke="#bdbdbd"></path><path d="M795 632.1L900 600L882 600Z" fill="#5a388e" stroke="#5a388e"></path><path d="M882 600L900 600L900 589.1Z" fill="#9381a8" stroke="#9381a8"></path><path d="M900 589.1L922 590.3L900 561.3Z" fill="#9e8fae" stroke="#9e8fae"></path><path d="M79 248.4L0 201.3L0 236.4Z" fill="#a89eb3" stroke="#a89eb3"></path><path d="M49 288.7L0 359L99 354.6Z" fill="#b3aeb8" stroke="#b3aeb8"></path><path d="M66 600L131 522.3L0 551.1Z" fill="#b3aeb8" stroke="#b3aeb8"></path><path d="M127 0L96 0L115 50.6Z" fill="#9e8fae" stroke="#9e8fae"></path><path d="M50 -10.1L96 0L0 -45.1Z" fill="#b3aeb8" stroke="#b3aeb8"></path><path d="M900 600L922 590.3L900 589.1Z" fill="#4d2a88" stroke="#4d2a88"></path><path d="M79 248.4L90 213.3L0 201.3Z" fill="#9381a8" stroke="#9381a8"></path><path d="M17 281.1L0 359L49 288.7Z" fill="#8872a3" stroke="#8872a3"></path><path d="M90 213.3L62 135.7L0 201.3Z" fill="#a89eb3" stroke="#a89eb3"></path><path d="M0 244.1L-1 257.4L17 281.1Z" fill="#bdbdbd" stroke="#bdbdbd"></path><path d="M0 201.3L62 135.7L0 103.7Z" fill="#8872a3" stroke="#8872a3"></path><path d="M0 244.1L-6 231.3L-1 257.4Z" fill="#b3aeb8" stroke="#b3aeb8"></path><path d="M-1 257.4L0 359L17 281.1Z" fill="#664793" stroke="#664793"></path><path d="M56 416.7L0 438.4L84 461.6Z" fill="#9e8fae" stroke="#9e8fae"></path><path d="M0 236.4L-6 231.3L0 244.1Z" fill="#9381a8" stroke="#9381a8"></path><path d="M0 103.7L62 135.7L64 108.9Z" fill="#8872a3" stroke="#8872a3"></path><path d="M0 201.3L-6 231.3L0 236.4Z" fill="#725598" stroke="#725598"></path><path d="M-1 257.4L-42 209.1L0 359Z" fill="#9e8fae" stroke="#9e8fae"></path><path d="M-21 442.4L0 385.6L0 359Z" fill="#8872a3" stroke="#8872a3"></path><path d="M0 359L0 385.6L82 396.4Z" fill="#725598" stroke="#725598"></path><path d="M-21 442.4L0 414.7L0 385.6Z" fill="#4d2a88" stroke="#4d2a88"></path><path d="M0 385.6L0 414.7L56 416.7Z" fill="#9e8fae" stroke="#9e8fae"></path><path d="M-21 442.4L0 423.9L0 414.7Z" fill="#8872a3" stroke="#8872a3"></path><path d="M0 414.7L0 423.9L56 416.7Z" fill="#5a388e" stroke="#5a388e"></path><path d="M-21 442.4L0 438.4L0 423.9Z" fill="#725598" stroke="#725598"></path><path d="M0 423.9L0 438.4L56 416.7Z" fill="#8872a3" stroke="#8872a3"></path><path d="M0 59.6L0 103.7L64 108.9Z" fill="#5a388e" stroke="#5a388e"></path><path d="M0 201.3L-42 209.1L-6 231.3Z" fill="#b3aeb8" stroke="#b3aeb8"></path><path d="M0 503.4L131 522.3L84 461.6Z" fill="#9e8fae" stroke="#9e8fae"></path><path d="M125 600L66 600L154 614.1Z" fill="#7d639e" stroke="#7d639e"></path><path d="M154 614.1L23 600L198 627.1Z" fill="#b3aeb8" stroke="#b3aeb8"></path><path d="M0 -45.1L96 0L127 0Z" fill="#8872a3" stroke="#8872a3"></path><path d="M96 0L35 0L115 50.6Z" fill="#4d2a88" stroke="#4d2a88"></path><path d="M50 -10.1L35 0L96 0Z" fill="#7d639e" stroke="#7d639e"></path><path d="M-42 209.1L-21 442.4L0 359Z" fill="#725598" stroke="#725598"></path><path d="M0 438.4L0 503.4L84 461.6Z" fill="#9381a8" stroke="#9381a8"></path><path d="M-42 209.1L-1 257.4L-6 231.3Z" fill="#8872a3" stroke="#8872a3"></path><path d="M-21 442.4L0 503.4L0 438.4Z" fill="#5a388e" stroke="#5a388e"></path><path d="M35 0L0 59.6L64 108.9Z" fill="#a89eb3" stroke="#a89eb3"></path><path d="M0 103.7L-42 209.1L0 201.3Z" fill="#8872a3" stroke="#8872a3"></path><path d="M-52 32.6L-42 209.1L0 103.7Z" fill="#a89eb3" stroke="#a89eb3"></path><path d="M-10 566.1L0 551.1L0 503.4Z" fill="#5a388e" stroke="#5a388e"></path><path d="M0 503.4L0 551.1L131 522.3Z" fill="#8872a3" stroke="#8872a3"></path><path d="M35 0L3 0L0 59.6Z" fill="#664793" stroke="#664793"></path><path d="M0 59.6L-52 32.6L0 103.7Z" fill="#9e8fae" stroke="#9e8fae"></path><path d="M0 -45.1L3 0L35 0Z" fill="#a89eb3" stroke="#a89eb3"></path><path d="M0 551.1L23 600L66 600Z" fill="#b3aeb8" stroke="#b3aeb8"></path><path d="M66 600L23 600L154 614.1Z" fill="#b3aeb8" stroke="#b3aeb8"></path><path d="M0 -45.1L0 0L3 0Z" fill="#bdbdbd" stroke="#bdbdbd"></path><path d="M3 0L0 0L0 59.6Z" fill="#9e8fae" stroke="#9e8fae"></path><path d="M-10 566.1L0 577.3L0 551.1Z" fill="#a89eb3" stroke="#a89eb3"></path><path d="M0 551.1L0 577.3L23 600Z" fill="#664793" stroke="#664793"></path><path d="M-25 594.1L-10 566.1L-21 442.4Z" fill="#9381a8" stroke="#9381a8"></path><path d="M-21 442.4L-10 566.1L0 503.4Z" fill="#4d2a88" stroke="#4d2a88"></path><path d="M-25 594.1L0 600L0 577.3Z" fill="#664793" stroke="#664793"></path><path d="M0 577.3L0 600L23 600Z" fill="#7d639e" stroke="#7d639e"></path><path d="M23 600L0 600L198 627.1Z" fill="#8872a3" stroke="#8872a3"></path><path d="M273 -48.1L0 -45.1L127 0Z" fill="#664793" stroke="#664793"></path><path d="M50 -10.1L0 -45.1L35 0Z" fill="#b3aeb8" stroke="#b3aeb8"></path><path d="M0 0L-52 32.6L0 59.6Z" fill="#b3aeb8" stroke="#b3aeb8"></path><path d="M357 -50.1L0 -45.1L273 -48.1Z" fill="#725598" stroke="#725598"></path><path d="M0 -45.1L-52 32.6L0 0Z" fill="#b3aeb8" stroke="#b3aeb8"></path><path d="M-42 209.1L-25 594.1L-21 442.4Z" fill="#8872a3" stroke="#8872a3"></path><path d="M-10 566.1L-25 594.1L0 577.3Z" fill="#725598" stroke="#725598"></path><path d="M-52 32.6L-25 594.1L-42 209.1Z" fill="#4d2a88" stroke="#4d2a88"></path></g></svg>