<svg id="visual" viewBox="0 0 1920 1080" width="1920" height="1080" xmlns="http://www.w3.org/2000/svg" xmlns:xlink="http://www.w3.org/1999/xlink" version="1.1"><path d="M0 152L21.3 143C42.7 134 85.3 116 128 103.5C170.7 91 213.3 84 256 89.5C298.7 95 341.3 113 384 123.7C426.7 134.3 469.3 137.7 512 141.2C554.7 144.7 597.3 148.3 640 152C682.7 155.7 725.3 159.3 768 148.5C810.7 137.7 853.3 112.3 896 112.3C938.7 112.3 981.3 137.7 1024 130.5C1066.7 123.3 1109.3 83.7 1152 81.8C1194.7 80 1237.3 116 1280 123.2C1322.7 130.3 1365.3 108.7 1408 94.3C1450.7 80 1493.3 73 1536 80.3C1578.7 87.7 1621.3 109.3 1664 112.8C1706.7 116.3 1749.3 101.7 1792 105.2C1834.7 108.7 1877.3 130.3 1898.7 141.2L1920 152L1920 0L1898.7 0C1877.3 0 1834.7 0 1792 0C1749.3 0 1706.7 0 1664 0C1621.3 0 1578.7 0 1536 0C1493.3 0 1450.7 0 1408 0C1365.3 0 1322.7 0 1280 0C1237.3 0 1194.7 0 1152 0C1109.3 0 1066.7 0 1024 0C981.3 0 938.7 0 896 0C853.3 0 810.7 0 768 0C725.3 0 682.7 0 640 0C597.3 0 554.7 0 512 0C469.3 0 426.7 0 384 0C341.3 0 298.7 0 256 0C213.3 0 170.7 0 128 0C85.3 0 42.7 0 21.3 0L0 0Z" fill="#6f3f99"></path><path d="M0 217L21.3 200.8C42.7 184.7 85.3 152.3 128 138C170.7 123.7 213.3 127.3 256 136.3C298.7 145.3 341.3 159.7 384 170.3C426.7 181 469.3 188 512 197C554.7 206 597.3 217 640 222.5C682.7 228 725.3 228 768 217.2C810.7 206.3 853.3 184.7 896 184.7C938.7 184.7 981.3 206.3 1024 190.2C1066.7 174 1109.3 120 1152 114.5C1194.7 109 1237.3 152 1280 159.2C1322.7 166.3 1365.3 137.7 1408 127C1450.7 116.3 1493.3 123.7 1536 134.5C1578.7 145.3 1621.3 159.7 1664 156C1706.7 152.3 1749.3 130.7 1792 132.5C1834.7 134.3 1877.3 159.7 1898.7 172.3L1920 185L1920 150L1898.7 139.2C1877.3 128.3 1834.7 106.7 1792 103.2C1749.3 99.7 1706.7 114.3 1664 110.8C1621.3 107.3 1578.7 85.7 1536 78.3C1493.3 71 1450.7 78 1408 92.3C1365.3 106.7 1322.7 128.3 1280 121.2C1237.3 114 1194.7 78 1152 79.8C1109.3 81.7 1066.7 121.3 1024 128.5C981.3 135.7 938.7 110.3 896 110.3C853.3 110.3 810.7 135.7 768 146.5C725.3 157.3 682.7 153.7 640 150C597.3 146.3 554.7 142.7 512 139.2C469.3 135.7 426.7 132.3 384 121.7C341.3 111 298.7 93 256 87.5C213.3 82 170.7 89 128 101.5C85.3 114 42.7 132 21.3 141L0 150Z" fill="#75459c"></path><path d="M0 347L21.3 345.2C42.7 343.3 85.3 339.7 128 323.3C170.7 307 213.3 278 256 274.3C298.7 270.7 341.3 292.3 384 306.8C426.7 321.3 469.3 328.7 512 337.7C554.7 346.7 597.3 357.3 640 373.5C682.7 389.7 725.3 411.3 768 404.2C810.7 397 853.3 361 896 341.2C938.7 321.3 981.3 317.7 1024 326.7C1066.7 335.7 1109.3 357.3 1152 386.2C1194.7 415 1237.3 451 1280 449.2C1322.7 447.3 1365.3 407.7 1408 396.8C1450.7 386 1493.3 404 1536 411.2C1578.7 418.3 1621.3 414.7 1664 411.2C1706.7 407.7 1749.3 404.3 1792 390C1834.7 375.7 1877.3 350.3 1898.7 337.7L1920 325L1920 183L1898.7 170.3C1877.3 157.7 1834.7 132.3 1792 130.5C1749.3 128.7 1706.7 150.3 1664 154C1621.3 157.7 1578.7 143.3 1536 132.5C1493.3 121.7 1450.7 114.3 1408 125C1365.3 135.7 1322.7 164.3 1280 157.2C1237.3 150 1194.7 107 1152 112.5C1109.3 118 1066.7 172 1024 188.2C981.3 204.3 938.7 182.7 896 182.7C853.3 182.7 810.7 204.3 768 215.2C725.3 226 682.7 226 640 220.5C597.3 215 554.7 204 512 195C469.3 186 426.7 179 384 168.3C341.3 157.7 298.7 143.3 256 134.3C213.3 125.3 170.7 121.7 128 136C85.3 150.3 42.7 182.7 21.3 198.8L0 215Z" fill="#7b4c9f"></path><path d="M0 401L21.3 397.3C42.7 393.7 85.3 386.3 128 371.8C170.7 357.3 213.3 335.7 256 341C298.7 346.3 341.3 378.7 384 387.7C426.7 396.7 469.3 382.3 512 386C554.7 389.7 597.3 411.3 640 438.3C682.7 465.3 725.3 497.7 768 494C810.7 490.3 853.3 450.7 896 427.3C938.7 404 981.3 397 1024 402.5C1066.7 408 1109.3 426 1152 445.8C1194.7 465.7 1237.3 487.3 1280 485.5C1322.7 483.7 1365.3 458.3 1408 454.7C1450.7 451 1493.3 469 1536 474.3C1578.7 479.7 1621.3 472.3 1664 477.7C1706.7 483 1749.3 501 1792 486.7C1834.7 472.3 1877.3 425.7 1898.7 402.3L1920 379L1920 323L1898.7 335.7C1877.3 348.3 1834.7 373.7 1792 388C1749.3 402.3 1706.7 405.7 1664 409.2C1621.3 412.7 1578.7 416.3 1536 409.2C1493.3 402 1450.7 384 1408 394.8C1365.3 405.7 1322.7 445.3 1280 447.2C1237.3 449 1194.7 413 1152 384.2C1109.3 355.3 1066.7 333.7 1024 324.7C981.3 315.7 938.7 319.3 896 339.2C853.3 359 810.7 395 768 402.2C725.3 409.3 682.7 387.7 640 371.5C597.3 355.3 554.7 344.7 512 335.7C469.3 326.7 426.7 319.3 384 304.8C341.3 290.3 298.7 268.7 256 272.3C213.3 276 170.7 305 128 321.3C85.3 337.7 42.7 341.3 21.3 343.2L0 345Z" fill="#8152a2"></path><path d="M0 476L21.3 483.2C42.7 490.3 85.3 504.7 128 492.2C170.7 479.7 213.3 440.3 256 442.2C298.7 444 341.3 487 384 496C426.7 505 469.3 480 512 487.2C554.7 494.3 597.3 533.7 640 558.8C682.7 584 725.3 595 768 580.7C810.7 566.3 853.3 526.7 896 503.2C938.7 479.7 981.3 472.3 1024 490.3C1066.7 508.3 1109.3 551.7 1152 582.3C1194.7 613 1237.3 631 1280 627.3C1322.7 623.7 1365.3 598.3 1408 593C1450.7 587.7 1493.3 602.3 1536 597C1578.7 591.7 1621.3 566.3 1664 573.5C1706.7 580.7 1749.3 620.3 1792 616.7C1834.7 613 1877.3 566 1898.7 542.5L1920 519L1920 377L1898.7 400.3C1877.3 423.7 1834.7 470.3 1792 484.7C1749.3 499 1706.7 481 1664 475.7C1621.3 470.3 1578.7 477.7 1536 472.3C1493.3 467 1450.7 449 1408 452.7C1365.3 456.3 1322.7 481.7 1280 483.5C1237.3 485.3 1194.7 463.7 1152 443.8C1109.3 424 1066.7 406 1024 400.5C981.3 395 938.7 402 896 425.3C853.3 448.7 810.7 488.3 768 492C725.3 495.7 682.7 463.3 640 436.3C597.3 409.3 554.7 387.7 512 384C469.3 380.3 426.7 394.7 384 385.7C341.3 376.7 298.7 344.3 256 339C213.3 333.7 170.7 355.3 128 369.8C85.3 384.3 42.7 391.7 21.3 395.3L0 399Z" fill="#8659a5"></path><path d="M0 779L21.3 779C42.7 779 85.3 779 128 788C170.7 797 213.3 815 256 806C298.7 797 341.3 761 384 737.5C426.7 714 469.3 703 512 706.5C554.7 710 597.3 728 640 735.2C682.7 742.3 725.3 738.7 768 738.7C810.7 738.7 853.3 742.3 896 740.7C938.7 739 981.3 732 1024 748.2C1066.7 764.3 1109.3 803.7 1152 809C1194.7 814.3 1237.3 785.7 1280 764.2C1322.7 742.7 1365.3 728.3 1408 726.5C1450.7 724.7 1493.3 735.3 1536 737.2C1578.7 739 1621.3 732 1664 755.5C1706.7 779 1749.3 833 1792 838.3C1834.7 843.7 1877.3 800.3 1898.7 778.7L1920 757L1920 517L1898.7 540.5C1877.3 564 1834.7 611 1792 614.7C1749.3 618.3 1706.7 578.7 1664 571.5C1621.3 564.3 1578.7 589.7 1536 595C1493.3 600.3 1450.7 585.7 1408 591C1365.3 596.3 1322.7 621.7 1280 625.3C1237.3 629 1194.7 611 1152 580.3C1109.3 549.7 1066.7 506.3 1024 488.3C981.3 470.3 938.7 477.7 896 501.2C853.3 524.7 810.7 564.3 768 578.7C725.3 593 682.7 582 640 556.8C597.3 531.7 554.7 492.3 512 485.2C469.3 478 426.7 503 384 494C341.3 485 298.7 442 256 440.2C213.3 438.3 170.7 477.7 128 490.2C85.3 502.7 42.7 488.3 21.3 481.2L0 474Z" fill="#8c5fa9"></path><path d="M0 822L21.3 818.3C42.7 814.7 85.3 807.3 128 816.3C170.7 825.3 213.3 850.7 256 852.5C298.7 854.3 341.3 832.7 384 814.7C426.7 796.7 469.3 782.3 512 777C554.7 771.7 597.3 775.3 640 773.5C682.7 771.7 725.3 764.3 768 767.8C810.7 771.3 853.3 785.7 896 791C938.7 796.3 981.3 792.7 1024 808.8C1066.7 825 1109.3 861 1152 862.8C1194.7 864.7 1237.3 832.3 1280 807.2C1322.7 782 1365.3 764 1408 764C1450.7 764 1493.3 782 1536 791C1578.7 800 1621.3 800 1664 818C1706.7 836 1749.3 872 1792 875.7C1834.7 879.3 1877.3 850.7 1898.7 836.3L1920 822L1920 755L1898.7 776.7C1877.3 798.3 1834.7 841.7 1792 836.3C1749.3 831 1706.7 777 1664 753.5C1621.3 730 1578.7 737 1536 735.2C1493.3 733.3 1450.7 722.7 1408 724.5C1365.3 726.3 1322.7 740.7 1280 762.2C1237.3 783.7 1194.7 812.3 1152 807C1109.3 801.7 1066.7 762.3 1024 746.2C981.3 730 938.7 737 896 738.7C853.3 740.3 810.7 736.7 768 736.7C725.3 736.7 682.7 740.3 640 733.2C597.3 726 554.7 708 512 704.5C469.3 701 426.7 712 384 735.5C341.3 759 298.7 795 256 804C213.3 813 170.7 795 128 786C85.3 777 42.7 777 21.3 777L0 777Z" fill="#9166ac"></path><path d="M0 919L21.3 906.3C42.7 893.7 85.3 868.3 128 866.5C170.7 864.7 213.3 886.3 256 891.8C298.7 897.3 341.3 886.7 384 879.5C426.7 872.3 469.3 868.7 512 859.7C554.7 850.7 597.3 836.3 640 834.5C682.7 832.7 725.3 843.3 768 845.2C810.7 847 853.3 840 896 845.5C938.7 851 981.3 869 1024 885.2C1066.7 901.3 1109.3 915.7 1152 915.7C1194.7 915.7 1237.3 901.3 1280 877.8C1322.7 854.3 1365.3 821.7 1408 814.3C1450.7 807 1493.3 825 1536 843C1578.7 861 1621.3 879 1664 898.8C1706.7 918.7 1749.3 940.3 1792 944C1834.7 947.7 1877.3 933.3 1898.7 926.2L1920 919L1920 820L1898.7 834.3C1877.3 848.7 1834.7 877.3 1792 873.7C1749.3 870 1706.7 834 1664 816C1621.3 798 1578.7 798 1536 789C1493.3 780 1450.7 762 1408 762C1365.3 762 1322.7 780 1280 805.2C1237.3 830.3 1194.7 862.7 1152 860.8C1109.3 859 1066.7 823 1024 806.8C981.3 790.7 938.7 794.3 896 789C853.3 783.7 810.7 769.3 768 765.8C725.3 762.3 682.7 769.7 640 771.5C597.3 773.3 554.7 769.7 512 775C469.3 780.3 426.7 794.7 384 812.7C341.3 830.7 298.7 852.3 256 850.5C213.3 848.7 170.7 823.3 128 814.3C85.3 805.3 42.7 812.7 21.3 816.3L0 820Z" fill="#966daf"></path><path d="M0 1027L21.3 1025.2C42.7 1023.3 85.3 1019.7 128 1019.7C170.7 1019.7 213.3 1023.3 256 1023.3C298.7 1023.3 341.3 1019.7 384 1023.3C426.7 1027 469.3 1038 512 1036.2C554.7 1034.3 597.3 1019.7 640 1016C682.7 1012.3 725.3 1019.7 768 1012.5C810.7 1005.3 853.3 983.7 896 989C938.7 994.3 981.3 1026.7 1024 1032.2C1066.7 1037.7 1109.3 1016.3 1152 1005.7C1194.7 995 1237.3 995 1280 989.5C1322.7 984 1365.3 973 1408 976.5C1450.7 980 1493.3 998 1536 998C1578.7 998 1621.3 980 1664 985.5C1706.7 991 1749.3 1020 1792 1027.2C1834.7 1034.3 1877.3 1019.7 1898.7 1012.3L1920 1005L1920 917L1898.7 924.2C1877.3 931.3 1834.7 945.7 1792 942C1749.3 938.3 1706.7 916.7 1664 896.8C1621.3 877 1578.7 859 1536 841C1493.3 823 1450.7 805 1408 812.3C1365.3 819.7 1322.7 852.3 1280 875.8C1237.3 899.3 1194.7 913.7 1152 913.7C1109.3 913.7 1066.7 899.3 1024 883.2C981.3 867 938.7 849 896 843.5C853.3 838 810.7 845 768 843.2C725.3 841.3 682.7 830.7 640 832.5C597.3 834.3 554.7 848.7 512 857.7C469.3 866.7 426.7 870.3 384 877.5C341.3 884.7 298.7 895.3 256 889.8C213.3 884.3 170.7 862.7 128 864.5C85.3 866.3 42.7 891.7 21.3 904.3L0 917Z" fill="#9c73b3"></path><path d="M0 1081L21.3 1081C42.7 1081 85.3 1081 128 1081C170.7 1081 213.3 1081 256 1081C298.7 1081 341.3 1081 384 1081C426.7 1081 469.3 1081 512 1081C554.7 1081 597.3 1081 640 1081C682.7 1081 725.3 1081 768 1081C810.7 1081 853.3 1081 896 1081C938.7 1081 981.3 1081 1024 1081C1066.7 1081 1109.3 1081 1152 1081C1194.7 1081 1237.3 1081 1280 1081C1322.7 1081 1365.3 1081 1408 1081C1450.7 1081 1493.3 1081 1536 1081C1578.7 1081 1621.3 1081 1664 1081C1706.7 1081 1749.3 1081 1792 1081C1834.7 1081 1877.3 1081 1898.7 1081L1920 1081L1920 1003L1898.7 1010.3C1877.3 1017.7 1834.7 1032.3 1792 1025.2C1749.3 1018 1706.7 989 1664 983.5C1621.3 978 1578.7 996 1536 996C1493.3 996 1450.7 978 1408 974.5C1365.3 971 1322.7 982 1280 987.5C1237.3 993 1194.7 993 1152 1003.7C1109.3 1014.3 1066.7 1035.7 1024 1030.2C981.3 1024.7 938.7 992.3 896 987C853.3 981.7 810.7 1003.3 768 1010.5C725.3 1017.7 682.7 1010.3 640 1014C597.3 1017.7 554.7 1032.3 512 1034.2C469.3 1036 426.7 1025 384 1021.3C341.3 1017.7 298.7 1021.3 256 1021.3C213.3 1021.3 170.7 1017.7 128 1017.7C85.3 1017.7 42.7 1021.3 21.3 1023.2L0 1025Z" fill="#a17ab6"></path></svg>