<svg id="visual" viewBox="0 0 540 960" width="540" height="960" xmlns="http://www.w3.org/2000/svg" xmlns:xlink="http://www.w3.org/1999/xlink" version="1.1"><path d="M0 39L60 49L120 49L180 49L240 39L300 39L360 30L420 49L480 49L540 30L540 0L480 0L420 0L360 0L300 0L240 0L180 0L120 0L60 0L0 0Z" fill="#4d2a88"></path><path d="M0 68L60 87L120 78L180 97L240 87L300 68L360 59L420 97L480 97L540 78L540 28L480 47L420 47L360 28L300 37L240 37L180 47L120 47L60 47L0 37Z" fill="#623b92"></path><path d="M0 174L60 145L120 164L180 174L240 145L300 174L360 155L420 183L480 164L540 193L540 76L480 95L420 95L360 57L300 66L240 85L180 95L120 76L60 85L0 66Z" fill="#754d9c"></path><path d="M0 308L60 241L120 279L180 299L240 270L300 299L360 231L420 260L480 318L540 289L540 191L480 162L420 181L360 153L300 172L240 143L180 172L120 162L60 143L0 172Z" fill="#8860a7"></path><path d="M0 347L60 270L120 318L180 337L240 299L300 327L360 260L420 289L480 356L540 318L540 287L480 316L420 258L360 229L300 297L240 268L180 297L120 277L60 239L0 306Z" fill="#9a72b2"></path><path d="M0 433L60 356L120 395L180 404L240 375L300 395L360 356L420 375L480 423L540 375L540 316L480 354L420 287L360 258L300 325L240 297L180 335L120 316L60 268L0 345Z" fill="#a17ab6"></path><path d="M0 471L60 385L120 452L180 443L240 414L300 433L360 385L420 433L480 452L540 423L540 373L480 421L420 373L360 354L300 393L240 373L180 402L120 393L60 354L0 431Z" fill="#a17ab6"></path><path d="M0 539L60 433L120 519L180 491L240 491L300 491L360 443L420 481L480 510L540 481L540 421L480 450L420 431L360 383L300 431L240 412L180 441L120 450L60 383L0 469Z" fill="#9a72b2"></path><path d="M0 587L60 500L120 577L180 558L240 548L300 539L360 519L420 548L480 558L540 519L540 479L480 508L420 479L360 441L300 489L240 489L180 489L120 517L60 431L0 537Z" fill="#8860a7"></path><path d="M0 721L60 740L120 702L180 702L240 711L300 711L360 779L420 692L480 721L540 750L540 517L480 556L420 546L360 517L300 537L240 546L180 556L120 575L60 498L0 585Z" fill="#754d9c"></path><path d="M0 903L60 903L120 903L180 913L240 903L300 923L360 923L420 923L480 913L540 913L540 748L480 719L420 690L360 777L300 709L240 709L180 700L120 700L60 738L0 719Z" fill="#623b92"></path><path d="M0 961L60 961L120 961L180 961L240 961L300 961L360 961L420 961L480 961L540 961L540 911L480 911L420 921L360 921L300 921L240 901L180 911L120 901L60 901L0 901Z" fill="#4d2a88"></path></svg>